<?xml version="1.0" encoding="UTF-8" standalone="no"?>
<!DOCTYPE svg PUBLIC "-//W3C//DTD SVG 1.1//EN" "http://www.w3.org/Graphics/SVG/1.1/DTD/svg11.dtd">
<svg version="1.1" xmlns="http://www.w3.org/2000/svg" xmlns:xlink="http://www.w3.org/1999/xlink" preserveAspectRatio="xMidYMid meet" viewBox="0 0 378.13 307.86" width="378.13" height="307.86"><defs><path d="M0 0L378.13 0L378.13 307.86L0 307.86L0 0Z" id="g5GvTdRfF"></path><path d="M105.08 43.97L285.16 43.97L285.16 254.13L105.08 254.13L105.08 43.97Z" id="fGab12m9n"></path><path d="M41.28 41.24C41.96 61.17 41.08 86.98 34.73 108.03C28.36 129.14 17.59 142.52 0 144.24C0 146.18 0 161.68 0 163.62C17.59 165.34 28.36 178.71 34.73 199.83C41.08 220.88 41.96 246.69 41.28 266.62C40.57 287.36 56.37 306.49 77.73 306.49C99.61 306.49 274.65 306.49 296.53 306.49C317.88 306.49 333.67 287.36 332.97 266.62C332.29 246.69 333.17 220.88 339.52 199.83C345.89 178.71 356.63 165.34 374.22 163.62C374.22 161.68 374.22 146.18 374.22 144.24C356.63 142.52 345.89 129.15 339.52 108.03C333.17 86.99 332.29 61.17 332.97 41.24C333.67 20.5 317.88 1.37 296.53 1.37C281.94 1.37 209 1.37 77.72 1.37C52.96 14.12 40.81 27.41 41.28 41.24ZM198.35 235.08C192.47 235.08 145.42 235.08 139.54 235.08C136.04 235.08 133.2 232.17 133.2 228.59C133.2 213.66 133.2 94.2 133.2 79.27C133.2 75.69 136.04 72.78 139.54 72.78C145.39 72.78 192.17 72.78 198.01 72.78C226.82 72.78 245.72 88.75 245.72 113.27C245.72 130.48 233.01 145.89 216.8 148.59C216.8 148.68 216.8 149.4 216.8 149.48C238.86 151.96 253.71 167.6 253.71 189.19C253.71 217.76 232.89 235.08 198.35 235.08ZM158.41 93.36L158.41 141.84C175.35 141.84 184.76 141.84 186.65 141.84C208.48 141.84 220.52 132.84 220.52 116.76C220.51 101.68 210.16 93.36 191.94 93.36C187.47 93.36 176.29 93.36 158.41 93.36ZM158.41 214.49C179.26 214.49 190.85 214.49 193.17 214.49C215.9 214.49 227.94 205.16 227.94 187.61C227.94 170.07 215.56 161.07 191.71 161.07C189.49 161.07 178.39 161.07 158.41 161.07L158.41 214.49Z" id="b2PzCgFlx"></path></defs><g><g><g><use xlink:href="#g5GvTdRfF" opacity="1" fill="#352f44" fill-opacity="1"></use></g><g><use xlink:href="#fGab12m9n" opacity="1" fill="#ffffff" fill-opacity="1"></use></g><g><use xlink:href="#b2PzCgFlx" opacity="1" fill="#352f44" fill-opacity="1"></use><g><use xlink:href="#b2PzCgFlx" opacity="1" fill-opacity="0" stroke="#000000" stroke-width="1" stroke-opacity="1"></use></g></g></g></g></svg>