<?xml version="1.0" encoding="UTF-8" standalone="no"?>
<!DOCTYPE svg PUBLIC "-//W3C//DTD SVG 1.1//EN" "http://www.w3.org/Graphics/SVG/1.1/DTD/svg11.dtd">
<svg version="1.1" xmlns="http://www.w3.org/2000/svg" xmlns:xlink="http://www.w3.org/1999/xlink" preserveAspectRatio="xMidYMid meet" viewBox="0 0 378.13 437.77" width="378.13" height="437.77"><defs><path d="M0 0.21L378.13 0.21L378.13 437.77L0 437.77L0 0.21Z" id="i2MRvLMHr2"></path><path d="M339 390.26L189.35 432.95L40.11 390.32L6.85 6.55L372.29 6.55L339 390.26Z" id="a32md3XJ8e"></path><mask id="maskbD1RIhee6" x="4.85" y="4.55" width="369.44" height="430.4" maskUnits="userSpaceOnUse"><rect x="4.85" y="4.55" width="369.44" height="430.4" fill="white"></rect><use xlink:href="#a32md3XJ8e" opacity="1" fill="black"></use></mask><path d="M350.61 32.86L192.83 32.86L192.83 404.91L320.56 369.5L350.61 32.86Z" id="a4ql6ToIir"></path><path d="M84.86 226.67L193 226.67L193 178.35L80.53 178.35L84.86 226.67Z" id="a19W9CRtB0"></path><path d="M192.83 80.54L71.83 80.54L76.22 128.86L193 128.86L193 80.54L192.83 80.54Z" id="b2jvJMbW9Z"></path><path d="M193 303.82L192.79 303.88L138.97 289.35L135.53 250.81L109.38 250.81L87.02 250.81L93.79 326.68L192.78 354.16L193 354.1L193 303.82Z" id="a5YV4RhFxu"></path><path d="M246.73 289.34L192.83 303.89L192.83 354.16L291.9 326.71L292.62 318.54L303.98 191.32L305.16 178.35L313.88 80.54L192.83 80.54L192.83 128.86L260.93 128.86L256.53 178.35L192.83 178.35L192.83 226.67L252.34 226.67L246.73 289.34Z" id="d3OdlgiR4"></path></defs><g><g><g><use xlink:href="#i2MRvLMHr2" opacity="1" fill="#352f44" fill-opacity="1"></use><g><use xlink:href="#i2MRvLMHr2" opacity="1" fill-opacity="0" stroke="#f90303" stroke-width="20" stroke-opacity="0"></use></g></g><g><use xlink:href="#a32md3XJ8e" opacity="1" fill="#352f44" fill-opacity="1"></use><g mask="url(#maskbD1RIhee6)"><use xlink:href="#a32md3XJ8e" opacity="1" fill-opacity="0" stroke="#000000" stroke-width="2" stroke-opacity="1"></use></g></g><g><use xlink:href="#a4ql6ToIir" opacity="1" fill="#352f44" fill-opacity="1"></use><g><use xlink:href="#a4ql6ToIir" opacity="1" fill-opacity="0" stroke="#000000" stroke-width="1" stroke-opacity="0"></use></g></g><g><use xlink:href="#a19W9CRtB0" opacity="1" fill="#ebebeb" fill-opacity="1"></use><g><use xlink:href="#a19W9CRtB0" opacity="1" fill-opacity="0" stroke="#000000" stroke-width="1" stroke-opacity="0"></use></g></g><g><use xlink:href="#b2jvJMbW9Z" opacity="1" fill="#ebebeb" fill-opacity="1"></use><g><use xlink:href="#b2jvJMbW9Z" opacity="1" fill-opacity="0" stroke="#000000" stroke-width="1" stroke-opacity="0"></use></g></g><g><use xlink:href="#a5YV4RhFxu" opacity="1" fill="#ebebeb" fill-opacity="1"></use><g><use xlink:href="#a5YV4RhFxu" opacity="1" fill-opacity="0" stroke="#000000" stroke-width="1" stroke-opacity="0"></use></g></g><g><use xlink:href="#d3OdlgiR4" opacity="1" fill="#ffffff" fill-opacity="1"></use><g><use xlink:href="#d3OdlgiR4" opacity="1" fill-opacity="0" stroke="#000000" stroke-width="1" stroke-opacity="0"></use></g></g></g></g></svg>