<?xml version="1.0" encoding="UTF-8" standalone="no"?>
<!DOCTYPE svg PUBLIC "-//W3C//DTD SVG 1.1//EN" "http://www.w3.org/Graphics/SVG/1.1/DTD/svg11.dtd">
<svg version="1.1" xmlns="http://www.w3.org/2000/svg" xmlns:xlink="http://www.w3.org/1999/xlink" preserveAspectRatio="xMidYMid meet" viewBox="0 0 374.75 374.75" width="374.75" height="374.75"><defs><path d="M1.21 1.02L373.54 1.02L373.54 373.73L1.21 373.73L1.21 1.02Z" id="a2SIqYgFsG"></path><path d="M216.35 169.81C192.47 128.61 179.2 105.73 176.55 101.15C188.91 77.45 195.77 64.29 197.15 61.65C202.5 53.63 210.86 53.72 216.08 61.65C221.84 71.53 236.23 96.2 259.25 135.68C253.53 140.23 239.23 151.61 216.35 169.81Z" id="b30ugXsoAO"></path><path d="M216.35 169.81C192.47 128.61 179.2 105.73 176.55 101.15C188.91 77.45 195.77 64.29 197.15 61.65C202.5 53.63 210.86 53.72 216.08 61.65C221.84 71.53 236.23 96.2 259.25 135.68C253.53 140.23 239.23 151.61 216.35 169.81Z" id="b1Smh7fliY"></path><path d="M215.35 168.42L55.16 292.82L175.58 101.46L215.35 168.42Z" id="afSyK0kUt"></path><path d="M291.52 89.04C294.02 102.86 306.49 171.98 328.93 296.41C254.54 339.02 213.21 362.68 204.95 367.42C200.63 369.71 189.1 370.7 189.1 370.7C189.1 370.7 178.61 369.5 174.62 367.26C166.41 362.65 125.39 339.59 51.55 298.1C171.11 184.05 245.85 112.77 275.74 84.26C282.61 77.96 289.71 80.11 291.52 89.04Z" id="a7AnF1n1Qx"></path><path d="M291.52 89.04C294.02 102.86 306.49 171.98 328.93 296.41C254.54 339.02 213.21 362.68 204.95 367.42C200.63 369.71 189.1 370.7 189.1 370.7C189.1 370.7 178.61 369.5 174.62 367.26C166.41 362.65 125.39 339.59 51.55 298.1C171.11 184.05 245.85 112.77 275.74 84.26C282.61 77.96 289.71 80.11 291.52 89.04Z" id="auwTNetEF"></path><path d="M52.79 298.1C85.53 126.05 103.72 30.47 107.36 11.36C109.38 2.42 115.42 1.57 120.81 9.44C128.08 21.77 146.25 52.59 175.32 101.9C150.81 141.14 65.04 278.48 52.79 298.1Z" id="aisbYEZEU"></path><path d="M51.56 298.1C84.96 126.05 103.51 30.47 107.22 11.36C109.28 2.42 115.45 1.57 120.95 9.44C128.37 21.77 146.89 52.59 176.55 101.9C151.55 141.14 64.06 278.48 51.56 298.1Z" id="g3ksOXmkxw"></path></defs><g><g><g><use xlink:href="#a2SIqYgFsG" opacity="1" fill="#352f44" fill-opacity="1"></use><g><use xlink:href="#a2SIqYgFsG" opacity="1" fill-opacity="0" stroke="#000000" stroke-width="1" stroke-opacity="1"></use></g></g><g><use xlink:href="#b30ugXsoAO" opacity="1" fill="#9e9b95" fill-opacity="1"></use><g><use xlink:href="#b30ugXsoAO" opacity="1" fill-opacity="0" stroke="#000000" stroke-width="1" stroke-opacity="0"></use></g></g><g><use xlink:href="#b1Smh7fliY" opacity="1" fill="#000000" fill-opacity="0"></use><g><use xlink:href="#b1Smh7fliY" opacity="1" fill-opacity="0" stroke="#000000" stroke-width="1" stroke-opacity="1"></use></g></g><g><use xlink:href="#afSyK0kUt" opacity="1" fill="#575252" fill-opacity="1"></use><g><use xlink:href="#afSyK0kUt" opacity="1" fill-opacity="0" stroke="#000000" stroke-width="1" stroke-opacity="0"></use></g></g><g><use xlink:href="#a7AnF1n1Qx" opacity="1" fill="#72716e" fill-opacity="1"></use><g><use xlink:href="#a7AnF1n1Qx" opacity="1" fill-opacity="0" stroke="#000000" stroke-width="1" stroke-opacity="0"></use></g></g><g><use xlink:href="#auwTNetEF" opacity="1" fill="#000000" fill-opacity="0"></use><g><use xlink:href="#auwTNetEF" opacity="1" fill-opacity="0" stroke="#000000" stroke-width="1" stroke-opacity="1"></use></g></g><g><use xlink:href="#aisbYEZEU" opacity="1" fill="#9c9898" fill-opacity="1"></use><g><use xlink:href="#aisbYEZEU" opacity="1" fill-opacity="0" stroke="#000000" stroke-width="1" stroke-opacity="0"></use></g></g><g><use xlink:href="#g3ksOXmkxw" opacity="1" fill="#000000" fill-opacity="0"></use><g><use xlink:href="#g3ksOXmkxw" opacity="1" fill-opacity="0" stroke="#000000" stroke-width="1" stroke-opacity="1"></use></g></g></g></g></svg>