<?xml version="1.0" encoding="UTF-8" standalone="no"?>
<!DOCTYPE svg PUBLIC "-//W3C//DTD SVG 1.1//EN" "http://www.w3.org/Graphics/SVG/1.1/DTD/svg11.dtd">
<svg version="1.1" xmlns="http://www.w3.org/2000/svg" xmlns:xlink="http://www.w3.org/1999/xlink" preserveAspectRatio="xMidYMid meet" viewBox="0 0 374.75 374.75" width="374.75" height="374.75"><defs><path d="M374.75 1.32L374.75 374.75L1.5 374.75L1.5 1.32L374.75 1.32Z" id="l7rgkKPdX"></path><path d="M6.51 185.85C0.99 192.26 -0.64 182.25 5.08 165.62C9.57 152.2 21.02 133.97 40.22 118.34C51.46 109.33 76.19 96.31 91.31 88.7C94.37 87.09 134.02 70.67 169.37 62.45C172.43 61.65 165.69 67.46 164.67 70.67C159.36 85.89 53.3 151.2 53.3 151.2C52.61 151.56 50.52 152.64 49.83 153C39.41 157.81 11.82 179.44 6.51 185.85ZM165.08 344.11C162.01 341.31 161.4 335.1 164.46 329.49C166.3 325.88 168.14 324.68 169.17 320.27C170.19 316.07 171 315.06 171.82 313.46C172.64 312.06 172.84 310.66 173.05 300.84C173.25 291.03 173.05 272.6 174.07 264.78C175.09 256.77 210.44 268.39 210.44 268.39C210.44 268.39 202.06 288.82 199.82 293.83C197.57 298.84 197.77 308.45 197.77 310.46C197.77 312.46 196.96 316.47 196.34 316.67C195.73 316.87 198.39 322.08 197.16 325.08C196.34 327.89 199 335.1 199.2 336.7C201.04 347.52 199.41 348.32 187.96 349.72C176.52 351.12 168.14 346.92 165.08 344.11ZM252.13 5.76C254.58 9.37 254.38 17.78 253.97 23.19C253.56 28.6 252.13 40.22 251.92 44.02C251.72 46.83 222.09 51.23 215.55 43.62C213.71 41.62 212.69 30.4 212.69 30.4C211.46 22.79 212.69 7.76 214.32 5.36C219.43 -1.45 246.41 -2.25 252.13 5.76ZM295.24 342.11C286.66 343.71 273.17 340.51 264.18 340.51C255.19 340.51 235.17 341.51 229.85 337.9C223.72 333.7 226.38 325.88 226.38 325.88C228.01 321.48 232.1 311.66 230.88 303.65C229.65 295.63 228.01 291.23 224.95 283.81C221.88 276.4 219.64 258.17 222.5 257.17C225.36 256.17 224.54 257.17 228.22 257.97C231.9 258.77 235.98 259.97 243.95 259.97C251.92 259.97 260.71 258.77 263.78 258.17C266.84 257.57 269.29 256.97 268.27 263.18C267.25 269.39 264.18 281.01 263.98 290.02C263.78 299.04 263.78 309.46 264.39 311.26C265 313.06 269.5 315.06 272.77 317.27C285.23 326.08 294.84 327.69 301.17 330.89C307.5 334.1 305.87 340.31 295.24 342.11Z" id="m14dOVcSmk"></path><path d="M6.51 185.85C0.99 192.26 -0.64 182.25 5.08 165.62C9.57 152.2 21.02 133.97 40.22 118.34C51.46 109.33 76.19 96.31 91.31 88.7C94.37 87.09 134.02 70.67 169.37 62.45C172.43 61.65 165.69 67.46 164.67 70.67C159.36 85.89 53.3 151.2 53.3 151.2C52.61 151.56 50.52 152.64 49.83 153C39.41 157.81 11.82 179.44 6.51 185.85ZM165.08 344.11C162.01 341.31 161.4 335.1 164.46 329.49C166.3 325.88 168.14 324.68 169.17 320.27C170.19 316.07 171 315.06 171.82 313.46C172.64 312.06 172.84 310.66 173.05 300.84C173.25 291.03 173.05 272.6 174.07 264.78C175.09 256.77 210.44 268.39 210.44 268.39C210.44 268.39 202.06 288.82 199.82 293.83C197.57 298.84 197.77 308.45 197.77 310.46C197.77 312.46 196.96 316.47 196.34 316.67C195.73 316.87 198.39 322.08 197.16 325.08C196.34 327.89 199 335.1 199.2 336.7C201.04 347.52 199.41 348.32 187.96 349.72C176.52 351.12 168.14 346.92 165.08 344.11ZM252.13 5.76C254.58 9.37 254.38 17.78 253.97 23.19C253.56 28.6 252.13 40.22 251.92 44.02C251.72 46.83 222.09 51.23 215.55 43.62C213.71 41.62 212.69 30.4 212.69 30.4C211.46 22.79 212.69 7.76 214.32 5.36C219.43 -1.45 246.41 -2.25 252.13 5.76ZM295.24 342.11C286.66 343.71 273.17 340.51 264.18 340.51C255.19 340.51 235.17 341.51 229.85 337.9C223.72 333.7 226.38 325.88 226.38 325.88C228.01 321.48 232.1 311.66 230.88 303.65C229.65 295.63 228.01 291.23 224.95 283.81C221.88 276.4 219.64 258.17 222.5 257.17C225.36 256.17 224.54 257.17 228.22 257.97C231.9 258.77 235.98 259.97 243.95 259.97C251.92 259.97 260.71 258.77 263.78 258.17C266.84 257.57 269.29 256.97 268.27 263.18C267.25 269.39 264.18 281.01 263.98 290.02C263.78 299.04 263.78 309.46 264.39 311.26C265 313.06 269.5 315.06 272.77 317.27C285.23 326.08 294.84 327.69 301.17 330.89C307.5 334.1 305.87 340.31 295.24 342.11Z" id="bNcUkif2"></path><path d="M27.15 143.4C62.91 123.16 76.19 151.01 79.05 179.66C81.7 206.5 95.4 220.52 130.54 219.72C166.71 218.92 177.75 239.55 187.76 263.79C207.17 171.04 238.23 153.01 258.26 137.19C300.76 103.33 248.45 43.63 229.04 50.45C206.56 69.48 163.03 74.68 98.46 99.12C81.91 105.33 37.77 123.96 27.15 143.4Z" id="a17w5N850n"></path><path d="M27.15 143.4C62.91 123.16 76.19 151.01 79.05 179.66C81.7 206.5 95.4 220.52 130.54 219.72C166.71 218.92 177.75 239.55 187.76 263.79C207.17 171.04 238.23 153.01 258.26 137.19C300.76 103.33 248.45 43.63 229.04 50.45C206.56 69.48 163.03 74.68 98.46 99.12C81.91 105.33 37.77 123.96 27.15 143.4Z" id="as8iUY5AD"></path><path d="M6.51 179.85C29.39 155 82.32 123.75 147.09 103.92C179.79 93.9 203.7 87.29 232.71 76.28C230.67 63.45 230.67 58.45 229.04 50.43C175.09 68.86 121.76 73.47 59.02 111.33C44.11 120.35 12.64 140.78 6.51 179.85Z" id="a2lRjxUHP0"></path><path d="M6.51 179.85C29.39 155 82.32 123.75 147.09 103.92C179.79 93.9 203.7 87.29 232.71 76.28C230.67 63.45 230.67 58.45 229.04 50.43C175.09 68.86 121.76 73.47 59.02 111.33C44.11 120.35 12.64 140.78 6.51 179.85Z" id="awQ9Kzdd7"></path><path d="M269.09 173.23C265.82 171.43 263.37 165.22 263.57 163.22C263.78 158.41 266.84 156.21 266.84 156.21C266.84 156.21 270.11 150.8 273.99 151C277.88 151.2 284.42 151.8 286.46 150C288.3 147.99 298.31 153.6 297.9 160.21C297.9 160.21 294.02 173.23 286.25 177.44C282.82 176.6 280.53 179.44 269.09 173.23ZM201.45 54.44C210.03 78.48 261.73 78.28 268.48 66.46C265.21 64.26 258.67 60.85 255.6 59.65C252.54 58.45 252.74 58.65 252.54 53.04C252.33 47.43 251.92 37.01 251.51 34.21C251.11 31.4 219.43 31.4 214.53 34.21C214.08 37.53 213.71 44.42 212.28 50.83C212.08 52.04 205.95 52.64 201.45 54.44Z" id="e9U4UqAbr"></path><path d="M269.09 173.23C265.82 171.43 263.37 165.22 263.57 163.22C263.78 158.41 266.84 156.21 266.84 156.21C266.84 156.21 270.11 150.8 273.99 151C277.88 151.2 284.42 151.8 286.46 150C288.3 147.99 298.31 153.6 297.9 160.21C297.9 160.21 294.02 173.23 286.25 177.44C282.82 176.6 280.53 179.44 269.09 173.23ZM201.45 54.44C210.03 78.48 261.73 78.28 268.48 66.46C265.21 64.26 258.67 60.85 255.6 59.65C252.54 58.45 252.74 58.65 252.54 53.04C252.33 47.43 251.92 37.01 251.51 34.21C251.11 31.4 219.43 31.4 214.53 34.21C214.08 37.53 213.71 44.42 212.28 50.83C212.08 52.04 205.95 52.64 201.45 54.44Z" id="aoPIsVLrq"></path><path d="M215.14 51.84C214.94 53.04 222.09 57.84 224.13 68.46C233.94 89.9 256.62 79.28 266.02 69.06C262.75 66.86 257.44 63.85 251.31 61.45C248.25 60.25 249.68 57.64 249.47 52.04C249.27 46.43 248.45 38.21 248.04 35.21C247.63 32.2 221.48 31.4 216.57 34.21C216.45 36.49 216.57 40.02 215.96 45.63C215.76 48.23 215.55 49.83 215.14 51.84Z" id="d2TUsRIvur"></path><path d="M215.14 51.84C214.94 53.04 222.09 57.84 224.13 68.46C233.94 89.9 256.62 79.28 266.02 69.06C262.75 66.86 257.44 63.85 251.31 61.45C248.25 60.25 249.68 57.64 249.47 52.04C249.27 46.43 248.45 38.21 248.04 35.21C247.63 32.2 221.48 31.4 216.57 34.21C216.45 36.49 216.57 40.02 215.96 45.63C215.76 48.23 215.55 49.83 215.14 51.84Z" id="a3Wdl9cfXj"></path><path d="M222.5 50.43C224.34 52.04 228.83 51.84 232.92 51.84C236.6 51.84 239.87 52.24 241.3 51.44C244.57 49.83 249.27 45.83 251.92 42.82C251.72 39.22 251.52 35.81 251.31 34.21C251.11 31.4 219.43 31.4 214.53 34.21C214.53 34.21 214.32 37.81 213.71 42.02C216.37 44.62 219.84 48.23 222.5 50.43Z" id="iaBmDucg"></path><path d="M222.5 50.43C224.34 52.04 228.83 51.84 232.92 51.84C236.6 51.84 239.87 52.24 241.3 51.44C244.57 49.83 249.27 45.83 251.92 42.82C251.72 39.22 251.52 35.81 251.31 34.21C251.11 31.4 219.43 31.4 214.53 34.21C214.53 34.21 214.32 37.81 213.71 42.02C216.37 44.62 219.84 48.23 222.5 50.43Z" id="gdqkGsUiM"></path><path d="M222.7 47.63C221.27 46.63 219.84 45.43 218.21 44.22C214.94 41.82 214.73 40.42 214.73 39.82C216.16 27.2 214.32 16.58 214.32 16.58C214.32 16.58 212.89 11.17 220.66 9.77C228.42 8.36 233.12 8.16 233.12 8.16C233.12 8.16 238.03 8.16 245.59 9.77C253.35 11.17 251.92 16.58 251.92 16.58C251.92 16.58 250.08 27.2 251.51 39.82C251.51 40.42 251.31 41.82 248.04 44.22C245.18 46.23 242.93 48.43 240.68 48.83C238.44 49.23 235.58 49.43 233.12 49.43C230.67 49.43 227.81 49.23 225.56 48.83C224.54 48.63 223.52 48.03 222.7 47.63Z" id="bkYJIp6sI"></path><path d="M222.7 47.63C221.27 46.63 219.84 45.43 218.21 44.22C214.94 41.82 214.73 40.42 214.73 39.82C216.16 27.2 214.32 16.58 214.32 16.58C214.32 16.58 212.89 11.17 220.66 9.77C228.42 8.36 233.12 8.16 233.12 8.16C233.12 8.16 238.03 8.16 245.59 9.77C253.35 11.17 251.92 16.58 251.92 16.58C251.92 16.58 250.08 27.2 251.51 39.82C251.51 40.42 251.31 41.82 248.04 44.22C245.18 46.23 242.93 48.43 240.68 48.83C238.44 49.23 235.58 49.43 233.12 49.43C230.67 49.43 227.81 49.23 225.56 48.83C224.54 48.63 223.52 48.03 222.7 47.63Z" id="d2V8IWi5y"></path><path d="M214.32 30.5C214.5 30.5 215.97 30.5 216.16 30.5C216.16 30.5 214.93 26.9 215.13 22.69C215.13 22.69 216.16 18.69 215.54 17.68C214.73 16.48 213.09 14.48 216.77 12.48C220.45 10.47 226.17 14.08 233.12 14.28C240.06 14.08 245.99 10.47 249.67 12.48C253.35 14.48 251.71 16.48 250.89 17.68C250.08 18.89 251.1 18.48 251.3 22.69C251.51 26.9 250.28 30.5 250.28 30.5C250.46 30.5 251.94 30.5 252.12 30.5C253.35 17.68 254.16 12.08 253.55 11.07C250.08 6.67 246.6 3.26 233.12 3.06C219.63 3.06 216.97 6.67 213.09 10.67C212.27 11.67 212.89 17.68 214.32 30.5ZM283.59 173.54C283.18 172.94 281.75 172.54 281.14 171.94C280.52 171.33 280.73 170.33 279.71 169.53C278.89 168.73 278.28 169.33 277.46 168.73C276.64 167.93 276.44 166.93 275.82 166.33C275.41 165.93 273.78 165.73 273.37 165.33C272.35 164.32 263.36 162.52 263.77 160.52C264.58 157.51 266.22 155.31 266.22 155.31C266.22 155.31 270.1 149.7 273.98 149.9C277.87 150.1 281.55 150.9 283.59 149.1C285.84 147.09 298.51 154.51 297.89 160.92C295.6 164.2 294.01 173.14 286.45 177.34C284.81 176.54 285.02 175.34 283.59 173.54Z" id="d1Ooap1kiE"></path><path d="M214.32 30.5C214.5 30.5 215.97 30.5 216.16 30.5C216.16 30.5 214.93 26.9 215.13 22.69C215.13 22.69 216.16 18.69 215.54 17.68C214.73 16.48 213.09 14.48 216.77 12.48C220.45 10.47 226.17 14.08 233.12 14.28C240.06 14.08 245.99 10.47 249.67 12.48C253.35 14.48 251.71 16.48 250.89 17.68C250.08 18.89 251.1 18.48 251.3 22.69C251.51 26.9 250.28 30.5 250.28 30.5C250.46 30.5 251.94 30.5 252.12 30.5C253.35 17.68 254.16 12.08 253.55 11.07C250.08 6.67 246.6 3.26 233.12 3.06C219.63 3.06 216.97 6.67 213.09 10.67C212.27 11.67 212.89 17.68 214.32 30.5ZM283.59 173.54C283.18 172.94 281.75 172.54 281.14 171.94C280.52 171.33 280.73 170.33 279.71 169.53C278.89 168.73 278.28 169.33 277.46 168.73C276.64 167.93 276.44 166.93 275.82 166.33C275.41 165.93 273.78 165.73 273.37 165.33C272.35 164.32 263.36 162.52 263.77 160.52C264.58 157.51 266.22 155.31 266.22 155.31C266.22 155.31 270.1 149.7 273.98 149.9C277.87 150.1 281.55 150.9 283.59 149.1C285.84 147.09 298.51 154.51 297.89 160.92C295.6 164.2 294.01 173.14 286.45 177.34C284.81 176.54 285.02 175.34 283.59 173.54Z" id="cdABHO5Ee"></path><path d="M298.51 102.72C300.76 105.32 304.85 112.53 301.78 121.15C315.27 132.37 309.34 149.6 297.29 161.01C297.29 161.01 294.43 150.6 282.98 150C283.39 145.99 272.36 142.78 277.47 132.37C269.7 130.56 269.91 125.36 268.68 118.95C267.66 112.53 271.34 72.27 271.34 72.27C271.34 72.27 284.21 69.26 293 77.48C301.78 85.89 301.17 96.31 298.51 102.72Z" id="aw14NrErT"></path><path d="M298.51 102.72C300.76 105.32 304.85 112.53 301.78 121.15C315.27 132.37 309.34 149.6 297.29 161.01C297.29 161.01 294.43 150.6 282.98 150C283.39 145.99 272.36 142.78 277.47 132.37C269.7 130.56 269.91 125.36 268.68 118.95C267.66 112.53 271.34 72.27 271.34 72.27C271.34 72.27 284.21 69.26 293 77.48C301.78 85.89 301.17 96.31 298.51 102.72Z" id="cNNcpby4"></path><path d="M294.02 102.92C296.27 105.52 301.58 112.94 298.31 121.75C297.7 123.75 293.2 123.75 289.93 128.96C298.1 124.35 303.21 125.56 305.05 131.36C307.91 140.38 301.58 151.2 296.06 157.21C296.06 157.01 295.86 156.81 295.86 156.61C295.04 159.61 294.02 165.42 287.89 171.83C284.82 175.04 282.37 174.64 278.9 173.83C274.81 172.83 273.38 171.03 267.66 168.02C264.39 166.22 266.23 164.02 266.23 162.21C266.23 161.81 266.63 161.21 267.25 160.41C267.66 159.41 268.88 157.81 270.72 156C270.72 156 273.38 152.4 277.26 152.6C281.14 152.8 285.23 152 286.25 151C286.25 143.99 278.08 143.78 280.94 131.77C281.14 131.16 282.17 130.16 285.44 129.76C280.53 128.76 278.28 128.56 274.81 125.36C272.36 123.15 270.52 120.35 269.9 116.74C268.68 110.53 266.64 77.88 266.64 77.88C266.64 77.88 281.55 70.47 290.34 78.88C299.13 87.29 296.67 96.51 294.02 102.92Z" id="b8bLRZXJSd"></path><path d="M294.02 102.92C296.27 105.52 301.58 112.94 298.31 121.75C297.7 123.75 293.2 123.75 289.93 128.96C298.1 124.35 303.21 125.56 305.05 131.36C307.91 140.38 301.58 151.2 296.06 157.21C296.06 157.01 295.86 156.81 295.86 156.61C295.04 159.61 294.02 165.42 287.89 171.83C284.82 175.04 282.37 174.64 278.9 173.83C274.81 172.83 273.38 171.03 267.66 168.02C264.39 166.22 266.23 164.02 266.23 162.21C266.23 161.81 266.63 161.21 267.25 160.41C267.66 159.41 268.88 157.81 270.72 156C270.72 156 273.38 152.4 277.26 152.6C281.14 152.8 285.23 152 286.25 151C286.25 143.99 278.08 143.78 280.94 131.77C281.14 131.16 282.17 130.16 285.44 129.76C280.53 128.76 278.28 128.56 274.81 125.36C272.36 123.15 270.52 120.35 269.9 116.74C268.68 110.53 266.64 77.88 266.64 77.88C266.64 77.88 281.55 70.47 290.34 78.88C299.13 87.29 296.67 96.51 294.02 102.92Z" id="k3DiN1YU3g"></path><path d="M203.9 52.44C200.43 51.44 198.18 54.24 194.71 56.24C193.69 55.64 189.19 53.64 186.74 55.04C184.29 56.44 182.65 57.85 180.2 58.85C178.97 58.25 175.7 58.25 173.05 59.25C170.39 60.05 166.3 61.85 162.42 67.06C159.97 75.67 205.74 69.26 205.74 69.26C209.3 68.46 219.96 66.06 223.52 65.26C222.29 63.66 215.96 55.64 203.9 52.44Z" id="c3Gt3zDIWn"></path><path d="M203.9 52.44C200.43 51.44 198.18 54.24 194.71 56.24C193.69 55.64 189.19 53.64 186.74 55.04C184.29 56.44 182.65 57.85 180.2 58.85C178.97 58.25 175.7 58.25 173.05 59.25C170.39 60.05 166.3 61.85 162.42 67.06C159.97 75.67 205.74 69.26 205.74 69.26C209.3 68.46 219.96 66.06 223.52 65.26C222.29 63.66 215.96 55.64 203.9 52.44Z" id="a5Cdp09Hju"></path><path d="M203.9 54.44C201.04 54.24 199.2 56.44 197.16 57.85C198.18 58.85 199.2 60.45 199.82 62.05C197.98 60.05 194.71 57.44 191.44 56.84C188.37 56.24 186.33 58.45 183.06 60.05C183.67 60.65 184.28 61.65 185.1 62.85C182.24 61.05 180.2 60.45 176.31 61.85C173.66 62.65 168.55 64.86 164.67 70.27C162.22 78.88 205.94 69.26 205.94 69.26C209.54 68.46 220.33 66.06 223.93 65.26C217.39 63.05 218.41 55.64 203.9 54.44Z" id="c3yt1H7h47"></path><path d="M203.9 54.44C201.04 54.24 199.2 56.44 197.16 57.85C198.18 58.85 199.2 60.45 199.82 62.05C197.98 60.05 194.71 57.44 191.44 56.84C188.37 56.24 186.33 58.45 183.06 60.05C183.67 60.65 184.28 61.65 185.1 62.85C182.24 61.05 180.2 60.45 176.31 61.85C173.66 62.65 168.55 64.86 164.67 70.27C162.22 78.88 205.94 69.26 205.94 69.26C209.54 68.46 220.33 66.06 223.93 65.26C217.39 63.05 218.41 55.64 203.9 54.44Z" id="a1fJUADG"></path><path d="M260.51 62.45C260.47 62.41 260.14 62.09 260.1 62.05C260.1 62.05 263.37 60.25 265.82 61.25C268.47 62.05 269.91 65.46 269.91 65.46C274.61 63.86 275.01 65.66 277.26 68.06C282.17 67.06 282.78 68.86 285.84 73.27C285.84 73.27 282.17 72.67 275.01 73.87C268.07 74.87 262.35 68.26 262.35 68.46C262.35 68.46 262.35 66.26 262.14 64.26C262.14 63.86 260.51 62.85 260.51 62.45Z" id="a2DZR7lOAe"></path><path d="M260.51 62.45C260.47 62.41 260.14 62.09 260.1 62.05C260.1 62.05 263.37 60.25 265.82 61.25C268.47 62.05 269.91 65.46 269.91 65.46C274.61 63.86 275.01 65.66 277.26 68.06C282.17 67.06 282.78 68.86 285.84 73.27C285.84 73.27 282.17 72.67 275.01 73.87C268.07 74.87 262.35 68.26 262.35 68.46C262.35 68.46 262.35 66.26 262.14 64.26C262.14 63.86 260.51 62.85 260.51 62.45Z" id="awk06Cxjz"></path><path d="M269.09 67.46C273.79 65.86 274.4 68.06 276.65 70.47C282.37 67.86 282.78 71.07 283.19 72.47C281.35 72.47 278.69 72.67 275.01 73.07C268.07 74.07 261.32 67.26 261.53 67.46C261.69 67.22 262.75 66.46 262.34 66.26C264.59 65.06 267.66 63.66 269.09 67.46Z" id="a43JfxlHmE"></path><path d="M269.09 67.46C273.79 65.86 274.4 68.06 276.65 70.47C282.37 67.86 282.78 71.07 283.19 72.47C281.35 72.47 278.69 72.67 275.01 73.07C268.07 74.07 261.32 67.26 261.53 67.46C261.69 67.22 262.75 66.46 262.34 66.26C264.59 65.06 267.66 63.66 269.09 67.46Z" id="ccK4Sgwch"></path><path d="M249.06 69.46C249.06 69.46 258.26 66.26 266.84 68.46C275.42 70.67 291.16 85.09 286.46 100.31C286.05 101.32 283.39 102.92 280.33 103.92C280.33 103.92 281.96 110.73 279.1 116.34C276.24 121.75 269.91 132.17 269.7 146.59C269.5 148.99 269.09 154 268.68 156.41C252.74 155.81 228.22 149.99 204.11 150.4C204.31 147.79 204.52 146.19 204.72 143.59C204.78 143.59 205.27 143.59 205.33 143.59C204.11 136.97 203.7 133.57 202.47 128.56C194.71 123.75 186.53 118.14 179.59 107.53C172.84 96.91 192.05 62.45 192.05 62.45C192.05 62.45 203.7 66.46 213.51 65.86C223.32 65.06 240.07 64.26 249.06 69.46ZM268.68 233.73C268.68 233.73 270.93 242.35 265.82 251.56C265 255.57 263.98 259.17 263.37 263.18C260.71 279.81 256.21 286.82 254.99 313.46C253.76 313.44 243.95 313.28 242.73 313.26C242.73 313.26 241.3 294.03 237.01 283.81C234.55 278.01 224.95 270.19 225.36 262.38C225.77 256.37 226.99 251.36 237.42 243.35C238.23 231.73 226.38 220.71 228.22 177.44C236.76 176.08 262.39 171.99 270.93 170.63C270.48 183.25 283.6 215.1 268.68 233.73Z" id="e2iyQz33cU"></path><path d="M249.06 69.46C249.06 69.46 258.26 66.26 266.84 68.46C275.42 70.67 291.16 85.09 286.46 100.31C286.05 101.32 283.39 102.92 280.33 103.92C280.33 103.92 281.96 110.73 279.1 116.34C276.24 121.75 269.91 132.17 269.7 146.59C269.5 148.99 269.09 154 268.68 156.41C252.74 155.81 228.22 149.99 204.11 150.4C204.31 147.79 204.52 146.19 204.72 143.59C204.78 143.59 205.27 143.59 205.33 143.59C204.11 136.97 203.7 133.57 202.47 128.56C194.71 123.75 186.53 118.14 179.59 107.53C172.84 96.91 192.05 62.45 192.05 62.45C192.05 62.45 203.7 66.46 213.51 65.86C223.32 65.06 240.07 64.26 249.06 69.46ZM268.68 233.73C268.68 233.73 270.93 242.35 265.82 251.56C265 255.57 263.98 259.17 263.37 263.18C260.71 279.81 256.21 286.82 254.99 313.46C253.76 313.44 243.95 313.28 242.73 313.26C242.73 313.26 241.3 294.03 237.01 283.81C234.55 278.01 224.95 270.19 225.36 262.38C225.77 256.37 226.99 251.36 237.42 243.35C238.23 231.73 226.38 220.71 228.22 177.44C236.76 176.08 262.39 171.99 270.93 170.63C270.48 183.25 283.6 215.1 268.68 233.73Z" id="b6wUzrAu3m"></path><path d="M264.39 234.33C265.2 238.09 265.27 241.97 264.59 245.75C264.18 248.15 263.37 250.76 262.35 253.56C260.3 258.37 259.48 265.38 258.87 269.59C256.21 286.22 256.21 287.02 254.99 313.66C253.76 313.64 243.95 313.48 242.73 313.46C242.73 313.46 241.3 294.23 237.01 284.01C234.55 278.2 229.45 273.2 229.04 265.38C228.63 259.37 232.92 247.35 243.14 247.75C242.52 223.52 231.08 228.32 228.02 177.84C235.86 176.04 259.4 170.63 267.25 168.83C270.52 189.26 278.08 219.51 264.39 234.33ZM216.37 64.06C226.18 63.25 240.07 62.25 249.27 67.46C249.27 67.46 254.38 65.86 259.89 66.26C262.35 66.46 264.8 68.46 267.66 69.26C276.65 71.47 285.23 86.09 281.35 99.31C280.94 100.32 278.08 99.31 274.81 100.32C275.42 103.12 275.83 109.53 272.56 116.34C269.09 123.15 264.59 131.97 265.41 148.79C243.95 147.79 234.35 146.39 213.1 145.39C211.26 137.98 210.03 130.56 209.83 126.76C212.69 125.36 214.32 124.16 216.57 121.75C210.44 122.75 207.99 122.35 204.31 120.35C200.63 118.34 194.09 111.93 190.82 107.73C190.42 107.33 188.17 113.94 183.06 114.14C181.22 111.53 188.98 104.12 187.55 101.32C182.45 91.1 192.05 62.45 192.05 62.45C192.05 62.45 196.55 63.86 201.45 64.26C206.36 64.66 211.67 64.26 216.37 64.06Z" id="g1AxC7Bmw9"></path><path d="M264.39 234.33C265.2 238.09 265.27 241.97 264.59 245.75C264.18 248.15 263.37 250.76 262.35 253.56C260.3 258.37 259.48 265.38 258.87 269.59C256.21 286.22 256.21 287.02 254.99 313.66C253.76 313.64 243.95 313.48 242.73 313.46C242.73 313.46 241.3 294.23 237.01 284.01C234.55 278.2 229.45 273.2 229.04 265.38C228.63 259.37 232.92 247.35 243.14 247.75C242.52 223.52 231.08 228.32 228.02 177.84C235.86 176.04 259.4 170.63 267.25 168.83C270.52 189.26 278.08 219.51 264.39 234.33ZM216.37 64.06C226.18 63.25 240.07 62.25 249.27 67.46C249.27 67.46 254.38 65.86 259.89 66.26C262.35 66.46 264.8 68.46 267.66 69.26C276.65 71.47 285.23 86.09 281.35 99.31C280.94 100.32 278.08 99.31 274.81 100.32C275.42 103.12 275.83 109.53 272.56 116.34C269.09 123.15 264.59 131.97 265.41 148.79C243.95 147.79 234.35 146.39 213.1 145.39C211.26 137.98 210.03 130.56 209.83 126.76C212.69 125.36 214.32 124.16 216.57 121.75C210.44 122.75 207.99 122.35 204.31 120.35C200.63 118.34 194.09 111.93 190.82 107.73C190.42 107.33 188.17 113.94 183.06 114.14C181.22 111.53 188.98 104.12 187.55 101.32C182.45 91.1 192.05 62.45 192.05 62.45C192.05 62.45 196.55 63.86 201.45 64.26C206.36 64.66 211.67 64.26 216.37 64.06Z" id="hmaIcqP7l"></path><path d="M271.13 172.03C268.88 175.84 259.07 184.45 241.3 187.66C223.72 191.26 200.43 164.22 200.43 164.22C201.04 161.61 203.08 154 204.52 150C204.72 149.6 205.13 148.59 205.13 148.19C206.97 145.59 268.88 152.2 268.88 152.2C268.88 152.2 269.29 159.41 269.29 161.21C269.29 163.22 270.93 169.23 271.13 172.03Z" id="a7y07miRRv"></path><path d="M271.13 172.03C268.88 175.84 259.07 184.45 241.3 187.66C223.72 191.26 200.43 164.22 200.43 164.22C201.04 161.61 203.08 154 204.52 150C204.72 149.6 205.13 148.59 205.13 148.19C206.97 145.59 268.88 152.2 268.88 152.2C268.88 152.2 269.29 159.41 269.29 161.21C269.29 163.22 270.93 169.23 271.13 172.03Z" id="b18TXMmEcE"></path><path d="M268.47 178.04C268.47 189.66 252.94 187.66 239.87 188.06C222.29 191.66 207.38 164.62 207.38 164.62C208.6 160.01 209.42 154.81 211.26 150.4C211.46 147.99 211.87 144.99 212.07 143.59C237 143.59 254.58 144.99 264.8 145.99C265.21 148.19 264.8 152 264.39 152.8C264.39 157.81 265.21 161.42 265.82 164.62C266.84 170.43 268.47 174.24 268.47 178.04Z" id="brwg2Vzl"></path><path d="M268.47 178.04C268.47 189.66 252.94 187.66 239.87 188.06C222.29 191.66 207.38 164.62 207.38 164.62C208.6 160.01 209.42 154.81 211.26 150.4C211.46 147.99 211.87 144.99 212.07 143.59C237 143.59 254.58 144.99 264.8 145.99C265.21 148.19 264.8 152 264.39 152.8C264.39 157.81 265.21 161.42 265.82 164.62C266.84 170.43 268.47 174.24 268.47 178.04Z" id="i1aP0ujguk"></path><path d="M190.01 234.73C183.26 243.75 175.5 248.76 175.5 265.38C175.5 282.01 176.32 284.82 176.32 284.82C178.71 284.94 197.83 285.9 200.22 286.02C200.22 286.02 207.99 276.2 211.05 265.59C211.87 262.58 212.69 257.17 212.08 250.96C212.89 249.76 216.37 246.96 216.78 241.55C216.78 241.55 228.42 235.54 235.17 220.91C241.5 207.69 239.87 196.27 244.77 178.64C236.11 175.32 233.94 155 201.45 162.02C193.69 183.45 183.26 208.09 190.01 234.73Z" id="a7oQNXRe1P"></path><path d="M190.01 234.73C183.26 243.75 175.5 248.76 175.5 265.38C175.5 282.01 176.32 284.82 176.32 284.82C178.71 284.94 197.83 285.9 200.22 286.02C200.22 286.02 207.99 276.2 211.05 265.59C211.87 262.58 212.69 257.17 212.08 250.96C212.89 249.76 216.37 246.96 216.78 241.55C216.78 241.55 228.42 235.54 235.17 220.91C241.5 207.69 239.87 196.27 244.77 178.64C236.11 175.32 233.94 155 201.45 162.02C193.69 183.45 183.26 208.09 190.01 234.73Z" id="cH3yJ8zs3"></path><path d="M197.16 235.33C185.1 250.36 179.59 253.56 182.04 284.01C183.63 284.01 196.38 284.01 197.98 284.01C205.33 272.6 206.97 268.39 207.38 253.36C207.38 252.76 205.13 254.57 203.49 256.57C204.72 250.36 208.19 249.16 210.85 245.35C212.08 243.75 213.1 241.34 213.1 238.14C227.4 228.72 232.71 216.9 235.78 204.68C238.23 196.27 241.09 182.45 244.77 178.64C244.16 176.44 235.98 154.8 205.74 161.21C187.96 207.69 194.5 226.92 197.16 235.33Z" id="a2vUde7Caa"></path><path d="M197.16 235.33C185.1 250.36 179.59 253.56 182.04 284.01C183.63 284.01 196.38 284.01 197.98 284.01C205.33 272.6 206.97 268.39 207.38 253.36C207.38 252.76 205.13 254.57 203.49 256.57C204.72 250.36 208.19 249.16 210.85 245.35C212.08 243.75 213.1 241.34 213.1 238.14C227.4 228.72 232.71 216.9 235.78 204.68C238.23 196.27 241.09 182.45 244.77 178.64C244.16 176.44 235.98 154.8 205.74 161.21C187.96 207.69 194.5 226.92 197.16 235.33Z" id="aoIjCJjqS"></path><path d="M211.26 152.8C213.1 154.81 217.59 157.81 216.78 160.81C216.37 162.42 215.35 162.82 213.92 164.22C213.3 164.82 208.81 169.63 207.79 170.23C207.17 170.63 206.36 171.23 205.74 171.63C205.44 171.83 202.98 173.43 202.68 173.63C200.63 174.64 199.2 175.24 196.96 175.04C196.96 175.04 191.85 174.84 188.58 171.43C188.58 171.43 188.17 169.83 188.99 169.03C188.99 169.03 184.69 165.42 183.47 163.02C182.24 160.61 182.24 157.21 183.06 155.41C183.47 153.6 191.44 148.59 194.3 146.39C194.3 146.39 199.82 146.59 204.72 148.19C209.42 149.8 209.42 150.8 211.26 152.8ZM183.27 348.32C169.37 348.12 165.69 343.91 164.47 341.71C164.38 341.19 163.73 337.02 163.65 336.5C163.65 336.5 166.31 332.69 166.92 332.69C171.41 333.09 186.74 339.1 197.37 340.71C198.39 340.71 198.59 341.11 199.41 341.31C199.29 342.31 198.86 345.82 198.8 346.32C195.69 346.72 196.96 348.52 183.27 348.32ZM228.83 335.5C231.28 337.3 237.42 338.3 249.06 338.1C266.02 337.7 281.76 343.11 300.97 339.9C300.98 339.66 301.05 338.46 301.17 336.3C301.05 336.29 300.43 336.22 299.33 336.1C258.5 332.85 235.82 331.05 231.28 330.69C230.09 330.9 229.34 331.04 229.04 331.09C229.04 333.29 228.83 333.29 228.83 335.5Z" id="nuLjaDOap"></path><path d="M211.26 152.8C213.1 154.81 217.59 157.81 216.78 160.81C216.37 162.42 215.35 162.82 213.92 164.22C213.3 164.82 208.81 169.63 207.79 170.23C207.17 170.63 206.36 171.23 205.74 171.63C205.44 171.83 202.98 173.43 202.68 173.63C200.63 174.64 199.2 175.24 196.96 175.04C196.96 175.04 191.85 174.84 188.58 171.43C188.58 171.43 188.17 169.83 188.99 169.03C188.99 169.03 184.69 165.42 183.47 163.02C182.24 160.61 182.24 157.21 183.06 155.41C183.47 153.6 191.44 148.59 194.3 146.39C194.3 146.39 199.82 146.59 204.72 148.19C209.42 149.8 209.42 150.8 211.26 152.8ZM183.27 348.32C169.37 348.12 165.69 343.91 164.47 341.71C164.38 341.19 163.73 337.02 163.65 336.5C163.65 336.5 166.31 332.69 166.92 332.69C171.41 333.09 186.74 339.1 197.37 340.71C198.39 340.71 198.59 341.11 199.41 341.31C199.29 342.31 198.86 345.82 198.8 346.32C195.69 346.72 196.96 348.52 183.27 348.32ZM228.83 335.5C231.28 337.3 237.42 338.3 249.06 338.1C266.02 337.7 281.76 343.11 300.97 339.9C300.98 339.66 301.05 338.46 301.17 336.3C301.05 336.29 300.43 336.22 299.33 336.1C258.5 332.85 235.82 331.05 231.28 330.69C230.09 330.9 229.34 331.04 229.04 331.09C229.04 333.29 228.83 333.29 228.83 335.5Z" id="c9ihVs93B"></path><path d="M281.76 340.71C287.68 340.51 295.04 339.1 294.43 334.9C288.62 334.42 242.2 330.57 236.39 330.09C232.92 333.89 235.58 337.1 243.95 338.1C244.98 338.1 248.55 338.1 249.06 338.1C260.1 337.7 270.52 340.11 281.76 340.71ZM202.68 285.42C198.18 291.83 194.3 303.05 193.48 317.27C193.69 320.47 195.52 323.28 193.07 327.49C193.89 330.09 197.16 335.3 198.79 338.5C200.43 341.71 201.25 345.31 190.42 345.51C179.38 345.71 161.6 344.51 164.06 336.1C165.28 331.69 168.76 327.09 169.16 325.28C169.57 323.48 169.57 318.07 173.05 314.46C176.11 304.45 175.09 294.83 174.48 285.82C173.46 276.4 173.25 261.38 177.34 253.77C179.18 254.97 191.64 262.18 211.87 261.18C211.46 264.98 211.67 272.4 202.68 285.42ZM155.88 80.68C152.82 81.08 145.87 81.48 142.4 93.9C139.74 103.52 138.31 105.32 133.61 110.13C130.54 113.54 133.81 120.55 136.06 125.56C143.62 142.78 166.92 144.39 182.65 157.41C187.96 156 193.48 150.2 195.12 146.39C181.83 130.96 184.69 124.95 179.38 116.94C185.1 114.94 198.18 107.13 196.34 90.5C210.85 71.47 198.59 56.24 175.3 60.85C165.9 62.65 156.5 69.06 155.88 80.68Z" id="d2bMwHbaa2"></path><path d="M281.76 340.71C287.68 340.51 295.04 339.1 294.43 334.9C288.62 334.42 242.2 330.57 236.39 330.09C232.92 333.89 235.58 337.1 243.95 338.1C244.98 338.1 248.55 338.1 249.06 338.1C260.1 337.7 270.52 340.11 281.76 340.71ZM202.68 285.42C198.18 291.83 194.3 303.05 193.48 317.27C193.69 320.47 195.52 323.28 193.07 327.49C193.89 330.09 197.16 335.3 198.79 338.5C200.43 341.71 201.25 345.31 190.42 345.51C179.38 345.71 161.6 344.51 164.06 336.1C165.28 331.69 168.76 327.09 169.16 325.28C169.57 323.48 169.57 318.07 173.05 314.46C176.11 304.45 175.09 294.83 174.48 285.82C173.46 276.4 173.25 261.38 177.34 253.77C179.18 254.97 191.64 262.18 211.87 261.18C211.46 264.98 211.67 272.4 202.68 285.42ZM155.88 80.68C152.82 81.08 145.87 81.48 142.4 93.9C139.74 103.52 138.31 105.32 133.61 110.13C130.54 113.54 133.81 120.55 136.06 125.56C143.62 142.78 166.92 144.39 182.65 157.41C187.96 156 193.48 150.2 195.12 146.39C181.83 130.96 184.69 124.95 179.38 116.94C185.1 114.94 198.18 107.13 196.34 90.5C210.85 71.47 198.59 56.24 175.3 60.85C165.9 62.65 156.5 69.06 155.88 80.68Z" id="dBW6fo1r2"></path><path d="M199 87.89C204.52 79.08 205.95 66.26 199.61 65.06C198.18 64.86 195.52 64.26 193.28 63.45C189.19 62.05 185.51 62.05 178.97 63.25C169.98 64.86 160.99 71.27 160.99 80.48C160.99 81.08 167.32 82.89 169.16 90.3C166.1 86.09 160.78 81.48 154.45 85.49C147.71 89.7 151.18 99.31 142.19 109.33C139.12 112.73 139.53 116.74 142.8 124.75C148.12 137.37 173.25 144.19 186.94 156.2C190.21 154.8 192.46 151.6 194.09 149.19C184.9 139.78 181.22 130.96 178.56 124.55C175.29 117.14 171.61 112.93 164.46 107.32C168.14 108.73 171 110.13 172.64 111.33C174.47 112.53 177.13 112.73 179.58 111.93C188.37 108.93 193.07 96.91 193.48 89.3C194.3 88.09 195.73 85.49 196.34 84.49C196.55 84.29 198.79 88.09 199 87.89Z" id="a3l999pJUR"></path><path d="M199 87.89C204.52 79.08 205.95 66.26 199.61 65.06C198.18 64.86 195.52 64.26 193.28 63.45C189.19 62.05 185.51 62.05 178.97 63.25C169.98 64.86 160.99 71.27 160.99 80.48C160.99 81.08 167.32 82.89 169.16 90.3C166.1 86.09 160.78 81.48 154.45 85.49C147.71 89.7 151.18 99.31 142.19 109.33C139.12 112.73 139.53 116.74 142.8 124.75C148.12 137.37 173.25 144.19 186.94 156.2C190.21 154.8 192.46 151.6 194.09 149.19C184.9 139.78 181.22 130.96 178.56 124.55C175.29 117.14 171.61 112.93 164.46 107.32C168.14 108.73 171 110.13 172.64 111.33C174.47 112.53 177.13 112.73 179.58 111.93C188.37 108.93 193.07 96.91 193.48 89.3C194.3 88.09 195.73 85.49 196.34 84.49C196.55 84.29 198.79 88.09 199 87.89Z" id="dORjqjsf2"></path><path d="M253.56 90.5C246.41 90.5 237.21 91.1 229.24 93.1C218.21 96.11 214.94 95.91 210.03 93.5C205.13 90.9 196.55 84.49 196.55 84.49C196.55 84.49 196.34 86.49 198.39 89.1C201.04 92.3 206.97 96.31 214.94 98.91C218.82 100.11 221.89 99.31 225.36 98.51C243.55 94.1 262.75 93.3 278.9 102.92C279.71 103.32 282.58 102.12 283.8 100.31C285.44 97.71 282.37 92.5 282.37 92.5C281.76 100.11 276.04 96.31 272.97 94.91C266.84 92.3 260.71 90.5 253.56 90.5Z" id="a1kXGXemQ9"></path><path d="M253.56 90.5C246.41 90.5 237.21 91.1 229.24 93.1C218.21 96.11 214.94 95.91 210.03 93.5C205.13 90.9 196.55 84.49 196.55 84.49C196.55 84.49 196.34 86.49 198.39 89.1C201.04 92.3 206.97 96.31 214.94 98.91C218.82 100.11 221.89 99.31 225.36 98.51C243.55 94.1 262.75 93.3 278.9 102.92C279.71 103.32 282.58 102.12 283.8 100.31C285.44 97.71 282.37 92.5 282.37 92.5C281.76 100.11 276.04 96.31 272.97 94.91C266.84 92.3 260.71 90.5 253.56 90.5Z" id="d3NNVwiUDF"></path><path d="M192.66 171.43C191.64 170.83 189.6 169.03 189.39 168.83C191.03 169.83 193.07 170.43 195.32 172.23C194.79 172.07 193.48 172.23 192.66 171.43Z" id="c4AY9H86Ic"></path><path d="M192.66 171.43C191.64 170.83 189.6 169.03 189.39 168.83C191.03 169.83 193.07 170.43 195.32 172.23C194.79 172.07 193.48 172.23 192.66 171.43Z" id="aanuN6ANDQ"></path><path d="M218.21 10.17C218.21 10.77 217.39 17.18 217.19 19.78C217.19 19.78 217.19 22.99 217.39 27.8C217.59 31 218.41 32.8 218.82 37.01C219.23 41.42 220.45 44.22 222.7 47.83C223.72 48.43 224.54 49.03 225.56 49.23C229.65 50.03 236.8 50.23 240.68 49.23C242.93 48.63 245.79 44.82 246.41 41.42C247.22 37.21 248.04 34.21 248.24 31.6C248.65 29 248.86 23.19 249.06 21.59C249.68 17.18 248.65 10.37 248.45 9.97C247.84 8.16 243.34 4.96 232.92 4.96C221.68 4.96 218.41 8.36 218.21 10.17Z" id="bwTh0BucX"></path><path d="M218.21 10.17C218.21 10.77 217.39 17.18 217.19 19.78C217.19 19.78 217.19 22.99 217.39 27.8C217.59 31 218.41 32.8 218.82 37.01C219.23 41.42 220.45 44.22 222.7 47.83C223.72 48.43 224.54 49.03 225.56 49.23C229.65 50.03 236.8 50.23 240.68 49.23C242.93 48.63 245.79 44.82 246.41 41.42C247.22 37.21 248.04 34.21 248.24 31.6C248.65 29 248.86 23.19 249.06 21.59C249.68 17.18 248.65 10.37 248.45 9.97C247.84 8.16 243.34 4.96 232.92 4.96C221.68 4.96 218.41 8.36 218.21 10.17Z" id="g129ta9qFa"></path><path d="M260.51 314.06C260.51 314.06 263.98 318.87 289.73 328.09C289.73 328.09 301.17 330.89 300.76 336.5C300.76 336.5 301.17 337.7 287.28 337.3C273.38 336.9 260.3 334.5 251.11 334.5C241.91 334.5 232.1 334.9 230.47 332.29C228.63 329.89 230.88 323.68 233.53 320.07C236.4 316.27 235.58 313.46 235.37 306.65C234.76 288.82 220.86 270.39 226.99 257.57C226.99 257.57 237.82 262.18 264.59 258.17C263.77 269.35 257.03 295.43 260.51 314.06Z" id="e35k0HIUk"></path><path d="M260.51 314.06C260.51 314.06 263.98 318.87 289.73 328.09C289.73 328.09 301.17 330.89 300.76 336.5C300.76 336.5 301.17 337.7 287.28 337.3C273.38 336.9 260.3 334.5 251.11 334.5C241.91 334.5 232.1 334.9 230.47 332.29C228.63 329.89 230.88 323.68 233.53 320.07C236.4 316.27 235.58 313.46 235.37 306.65C234.76 288.82 220.86 270.39 226.99 257.57C226.99 257.57 237.82 262.18 264.59 258.17C263.77 269.35 257.03 295.43 260.51 314.06Z" id="a1evqSMTwU"></path><path d="M234.55 302.04C235.58 314.06 235.78 315.67 232.31 322.68C228.83 329.69 227.81 336.1 239.87 336.3C251.92 336.5 258.46 336.1 270.72 337.9C282.98 339.7 287.27 340.31 294.02 339.3C300.76 338.3 302.19 336.1 299.33 334.1C296.47 332.09 284.62 329.89 279.51 325.88C274.6 322.28 260.71 316.27 260.51 314.66C259.89 309.25 259.69 289.62 260.71 283.21C261.73 276.8 263.16 267.59 263.57 265.18C263.98 262.78 266.02 260.37 262.55 261.18C259.08 261.98 246 263.78 236.19 263.18C226.38 262.58 225.36 260.38 224.75 260.98C223.31 262.98 224.95 270.59 226.99 278C229.04 285.42 233.53 289.82 234.55 302.04Z" id="b3n8JVmv62"></path><path d="M234.55 302.04C235.58 314.06 235.78 315.67 232.31 322.68C228.83 329.69 227.81 336.1 239.87 336.3C251.92 336.5 258.46 336.1 270.72 337.9C282.98 339.7 287.27 340.31 294.02 339.3C300.76 338.3 302.19 336.1 299.33 334.1C296.47 332.09 284.62 329.89 279.51 325.88C274.6 322.28 260.71 316.27 260.51 314.66C259.89 309.25 259.69 289.62 260.71 283.21C261.73 276.8 263.16 267.59 263.57 265.18C263.98 262.78 266.02 260.37 262.55 261.18C259.08 261.98 246 263.78 236.19 263.18C226.38 262.58 225.36 260.38 224.75 260.98C223.31 262.98 224.95 270.59 226.99 278C229.04 285.42 233.53 289.82 234.55 302.04Z" id="a8TGIdIONF"></path><path d="M244.16 325.68C244.16 325.68 242.73 332.29 244.98 336.3C247.22 340.31 228.63 337.9 228.63 337.9C228.57 336.95 228.3 332.21 227.81 323.68C229.88 323.25 231.18 322.98 231.69 322.88C235.17 324.48 240.28 325.68 244.16 325.68ZM288.71 332.09C285.84 328.69 283.39 328.09 287.07 327.89C290.75 327.69 304.24 335.7 304.24 335.7C303.77 336.11 301.46 338.18 297.29 341.91C291.18 340.95 287.37 340.35 285.84 340.11C289.11 339.1 291.36 335.5 288.71 332.09ZM242.12 270.59C248.24 270.39 257.44 269.59 263.37 267.59C269.29 265.58 266.84 269.79 266.84 269.79C266.51 270.09 263.9 272.5 263.57 272.8C263.57 272.8 255.81 275.8 243.14 275.6C228.22 275.4 223.72 273.8 223.72 273.8C223.81 272.8 224.05 269.79 224.13 268.79C228.83 270.39 235.98 270.79 242.12 270.59ZM242.52 280.61C248.65 280.41 256.83 280.41 262.75 278.21C265.21 277.4 263.78 280.81 263.78 280.81C263.67 280.99 262.86 282.43 262.75 282.61C262.75 282.61 254.78 285.42 242.32 285.22C227.4 285.02 224.75 283.81 224.75 283.81C224.7 282.81 224.58 279.81 224.54 278.81C229.24 280.41 236.39 280.81 242.52 280.61Z" id="b2ghO7Plji"></path><path d="M244.16 325.68C244.16 325.68 242.73 332.29 244.98 336.3C247.22 340.31 228.63 337.9 228.63 337.9C228.57 336.95 228.3 332.21 227.81 323.68C229.88 323.25 231.18 322.98 231.69 322.88C235.17 324.48 240.28 325.68 244.16 325.68ZM288.71 332.09C285.84 328.69 283.39 328.09 287.07 327.89C290.75 327.69 304.24 335.7 304.24 335.7C303.77 336.11 301.46 338.18 297.29 341.91C291.18 340.95 287.37 340.35 285.84 340.11C289.11 339.1 291.36 335.5 288.71 332.09ZM242.12 270.59C248.24 270.39 257.44 269.59 263.37 267.59C269.29 265.58 266.84 269.79 266.84 269.79C266.51 270.09 263.9 272.5 263.57 272.8C263.57 272.8 255.81 275.8 243.14 275.6C228.22 275.4 223.72 273.8 223.72 273.8C223.81 272.8 224.05 269.79 224.13 268.79C228.83 270.39 235.98 270.79 242.12 270.59ZM242.52 280.61C248.65 280.41 256.83 280.41 262.75 278.21C265.21 277.4 263.78 280.81 263.78 280.81C263.67 280.99 262.86 282.43 262.75 282.61C262.75 282.61 254.78 285.42 242.32 285.22C227.4 285.02 224.75 283.81 224.75 283.81C224.7 282.81 224.58 279.81 224.54 278.81C229.24 280.41 236.39 280.81 242.52 280.61Z" id="b5yczZVn9p"></path><path d="M235.78 149.2C244.57 150.8 262.96 149.2 265.82 148.59C265.78 148.87 265.45 151.12 265.41 151.4C265.41 151.4 243.54 154.6 226.79 150.2C210.03 145.79 211.87 144.79 211.87 144.79C211.71 143.51 211.22 139.66 211.05 138.38C211.05 139.78 226.99 147.59 235.78 149.2Z" id="h3NhYB473"></path><path d="M235.78 149.2C244.57 150.8 262.96 149.2 265.82 148.59C265.78 148.87 265.45 151.12 265.41 151.4C265.41 151.4 243.54 154.6 226.79 150.2C210.03 145.79 211.87 144.79 211.87 144.79C211.71 143.51 211.22 139.66 211.05 138.38C211.05 139.78 226.99 147.59 235.78 149.2Z" id="dDCrCrAJg"></path><path d="M196.14 291.43C199.41 282.81 204.72 275.8 207.17 260.58C198.59 259.78 188.78 257.57 183.67 255.97C177.13 275.6 179.38 292.43 176.93 309.26C179.38 310.46 188.17 312.66 193.89 311.46C194.71 311.26 193.89 297.64 196.14 291.43ZM191.85 315.27C191.85 315.25 191.85 315.09 191.85 315.07C190.01 313.46 177.54 313.26 178.36 314.06C176.93 316.67 174.68 316.27 173.87 321.48C173.46 324.08 176.73 321.88 179.79 321.68C174.27 325.28 167.94 329.89 166.92 333.9C165.69 339.5 167.74 341.11 173.87 344.11C179.18 345.32 185.51 345.52 190.42 345.32C195.93 344.31 196.96 341.71 195.32 338.1C192.87 332.69 191.23 325.68 190.62 321.88C192.05 322.28 193.07 323.88 193.48 322.88C194.3 321.07 192.05 317.67 191.85 315.27Z" id="f3SCZ5ETN"></path><path d="M196.14 291.43C199.41 282.81 204.72 275.8 207.17 260.58C198.59 259.78 188.78 257.57 183.67 255.97C177.13 275.6 179.38 292.43 176.93 309.26C179.38 310.46 188.17 312.66 193.89 311.46C194.71 311.26 193.89 297.64 196.14 291.43ZM191.85 315.27C191.85 315.25 191.85 315.09 191.85 315.07C190.01 313.46 177.54 313.26 178.36 314.06C176.93 316.67 174.68 316.27 173.87 321.48C173.46 324.08 176.73 321.88 179.79 321.68C174.27 325.28 167.94 329.89 166.92 333.9C165.69 339.5 167.74 341.11 173.87 344.11C179.18 345.32 185.51 345.52 190.42 345.32C195.93 344.31 196.96 341.71 195.32 338.1C192.87 332.69 191.23 325.68 190.62 321.88C192.05 322.28 193.07 323.88 193.48 322.88C194.3 321.07 192.05 317.67 191.85 315.27Z" id="j1mP4vCKxB"></path><path d="M221.89 63.05C222.7 63.25 222.7 63.85 222.7 63.85C222.7 63.85 219.64 65.46 212.69 65.86C206.15 66.26 198.39 65.86 194.09 63.85C188.99 61.65 192.87 61.65 192.87 61.65C199.61 65.46 209.01 64.46 212.49 64.26C213.3 64.26 221.48 62.85 221.89 63.05ZM275.83 75.07C275.01 74.07 268.68 69.86 266.23 68.86C263.78 67.86 260.71 66.06 260.71 65.66C260.71 65.26 262.35 65.46 262.35 65.46C263.57 66.26 271.54 69.26 275.01 72.87C278.08 76.08 276.45 75.88 275.83 75.07Z" id="b56YZMyBVs"></path><path d="M221.89 63.05C222.7 63.25 222.7 63.85 222.7 63.85C222.7 63.85 219.64 65.46 212.69 65.86C206.15 66.26 198.39 65.86 194.09 63.85C188.99 61.65 192.87 61.65 192.87 61.65C199.61 65.46 209.01 64.46 212.49 64.26C213.3 64.26 221.48 62.85 221.89 63.05ZM275.83 75.07C275.01 74.07 268.68 69.86 266.23 68.86C263.78 67.86 260.71 66.06 260.71 65.66C260.71 65.26 262.35 65.46 262.35 65.46C263.57 66.26 271.54 69.26 275.01 72.87C278.08 76.08 276.45 75.88 275.83 75.07Z" id="a2ACJT5j2P"></path><path d="M212.69 159.81C212.69 160.41 211.46 162.02 210.44 163.22C209.83 164.02 207.99 165.82 207.38 166.42C206.56 167.02 203.7 169.23 203.09 169.63C202.47 170.03 201.66 171.03 201.04 171.23C199 172.23 196.75 171.43 194.71 170.43C192.67 169.43 195.12 169.23 192.87 167.63C187.35 163.82 184.29 161.21 186.53 153.8C186.74 152.4 188.99 150.8 191.85 148.59C197.77 148.19 203.9 149.6 207.78 153.6C209.83 155.6 213.1 157.81 212.69 159.81Z" id="f167DmkTmQ"></path><path d="M212.69 159.81C212.69 160.41 211.46 162.02 210.44 163.22C209.83 164.02 207.99 165.82 207.38 166.42C206.56 167.02 203.7 169.23 203.09 169.63C202.47 170.03 201.66 171.03 201.04 171.23C199 172.23 196.75 171.43 194.71 170.43C192.67 169.43 195.12 169.23 192.87 167.63C187.35 163.82 184.29 161.21 186.53 153.8C186.74 152.4 188.99 150.8 191.85 148.59C197.77 148.19 203.9 149.6 207.78 153.6C209.83 155.6 213.1 157.81 212.69 159.81Z" id="a1X0ScWWuK"></path><path d="M79.05 179.64C79.25 181.25 79.46 182.65 79.66 184.25C79.87 185.65 80.07 186.66 80.27 187.26C80.27 187.46 80.27 187.86 80.48 188.06C92.54 155.81 135.65 121.75 137.29 119.15C138.1 117.94 136.26 112.74 139.13 107.73C142.8 101.32 149.96 98.51 139.74 102.72C121.35 109.93 74.55 132.77 61.27 139.78C72.31 146.59 77.41 163.02 79.05 179.64ZM195.93 179.84C183.67 193.26 152.82 218.51 130.54 219.91C161.81 218.91 174.07 234.33 183.47 253.97C192.87 235.54 193.07 217.91 192.87 197.27C192.87 188.66 199.2 176.44 195.93 179.84Z" id="b4VFGVV5q5"></path><path d="M79.05 179.64C79.25 181.25 79.46 182.65 79.66 184.25C79.87 185.65 80.07 186.66 80.27 187.26C80.27 187.46 80.27 187.86 80.48 188.06C92.54 155.81 135.65 121.75 137.29 119.15C138.1 117.94 136.26 112.74 139.13 107.73C142.8 101.32 149.96 98.51 139.74 102.72C121.35 109.93 74.55 132.77 61.27 139.78C72.31 146.59 77.41 163.02 79.05 179.64ZM195.93 179.84C183.67 193.26 152.82 218.51 130.54 219.91C161.81 218.91 174.07 234.33 183.47 253.97C192.87 235.54 193.07 217.91 192.87 197.27C192.87 188.66 199.2 176.44 195.93 179.84Z" id="ecH8lR9lX"></path><path d="M43.29 156.81C54.94 148.59 115.22 117.14 129.73 112.73C144.23 108.13 139.74 102.72 139.74 102.72C139.74 102.72 80.89 127.56 45.74 148.99" id="buHTdvsc7"></path><path d="M43.29 156.81C54.94 148.59 115.22 117.14 129.73 112.73C144.23 108.13 139.74 102.72 139.74 102.72C139.74 102.72 80.89 127.56 45.74 148.99" id="a3aw10JrNm"></path><path d="M207.78 107.73C209.01 112.94 220.05 118.74 219.43 137.78C219.02 153.4 215.55 159.81 215.55 159.81C214.77 158.85 208.56 151.16 207.78 150.2C207.78 150.2 206.56 128.56 203.9 125.36C201.25 122.15 192.87 116.34 189.6 113.34C186.33 110.33 193.28 106.33 192.87 100.72C192.46 95.31 196.34 84.49 196.34 84.49C200.06 87.37 211.22 96.03 214.94 98.91C210.24 97.11 206.56 102.52 207.78 107.73ZM247.84 232.13C249.27 242.75 251.11 243.55 247.84 248.36C244.57 252.96 240.28 260.58 240.28 260.58C238.87 260.46 227.59 259.49 226.18 259.37C226.18 259.37 237.42 245.35 238.03 242.75C238.64 240.14 232.31 220.31 232.31 220.31C234.51 213.1 241.13 191.46 243.34 184.25C242.93 199.28 246.41 221.51 247.84 232.13ZM228.01 54.84C231.28 56.04 244.16 57.65 249.27 52.04C251.51 49.43 250.08 42.42 250.08 42.42C249.31 43.03 245.42 46.11 238.44 51.63C237.39 51.44 232.14 50.51 222.7 48.83C221.6 46.06 220.98 44.53 220.86 44.22C218.36 44.12 216.79 44.05 216.16 44.02C219.03 50.23 222.5 53.04 228.01 54.84Z" id="a8GHdBsfH"></path><path d="M207.78 107.73C209.01 112.94 220.05 118.74 219.43 137.78C219.02 153.4 215.55 159.81 215.55 159.81C214.77 158.85 208.56 151.16 207.78 150.2C207.78 150.2 206.56 128.56 203.9 125.36C201.25 122.15 192.87 116.34 189.6 113.34C186.33 110.33 193.28 106.33 192.87 100.72C192.46 95.31 196.34 84.49 196.34 84.49C200.06 87.37 211.22 96.03 214.94 98.91C210.24 97.11 206.56 102.52 207.78 107.73ZM247.84 232.13C249.27 242.75 251.11 243.55 247.84 248.36C244.57 252.96 240.28 260.58 240.28 260.58C238.87 260.46 227.59 259.49 226.18 259.37C226.18 259.37 237.42 245.35 238.03 242.75C238.64 240.14 232.31 220.31 232.31 220.31C234.51 213.1 241.13 191.46 243.34 184.25C242.93 199.28 246.41 221.51 247.84 232.13ZM228.01 54.84C231.28 56.04 244.16 57.65 249.27 52.04C251.51 49.43 250.08 42.42 250.08 42.42C249.31 43.03 245.42 46.11 238.44 51.63C237.39 51.44 232.14 50.51 222.7 48.83C221.6 46.06 220.98 44.53 220.86 44.22C218.36 44.12 216.79 44.05 216.16 44.02C219.03 50.23 222.5 53.04 228.01 54.84Z" id="adMt7QRFD"></path><path d="M217.39 57.85C222.7 61.25 235.98 64.46 239.66 65.06C243.34 65.86 249.27 61.25 252.13 60.05C255.19 58.65 260.51 57.85 266.64 63.25C267.25 63.86 265.21 66.46 265.21 66.46C265 66.26 263.77 66.26 262.14 65.46C260.51 64.66 259.07 64.06 256.62 64.26C246.4 65.46 244.77 68.86 235.78 66.86C226.79 64.85 224.54 63.25 215.75 63.65" id="bEcNxOPRU"></path><path d="M217.39 57.85C222.7 61.25 235.98 64.46 239.66 65.06C243.34 65.86 249.27 61.25 252.13 60.05C255.19 58.65 260.51 57.85 266.64 63.25C267.25 63.86 265.21 66.46 265.21 66.46C265 66.26 263.77 66.26 262.14 65.46C260.51 64.66 259.07 64.06 256.62 64.26C246.4 65.46 244.77 68.86 235.78 66.86C226.79 64.85 224.54 63.25 215.75 63.65" id="h28oz6XfWu"></path><path d="M215.55 58.45C222.29 61.25 235.37 64.26 239.05 65.06C242.73 65.86 248.65 62.25 251.51 60.45C256.62 57.24 263.16 59.85 266.23 63.25C268.27 65.46 269.09 66.86 269.09 67.46C269.09 68.26 266.64 67.46 266.64 67.46C265.21 66.86 263.57 66.66 262.35 65.86C260.71 65.06 259.08 63.86 256.62 64.06C246.41 65.26 244.36 68.66 235.58 66.66C226.79 64.66 224.54 62.85 215.14 63.45" id="a1OUPj2CKB"></path><path d="M215.55 58.45C222.29 61.25 235.37 64.26 239.05 65.06C242.73 65.86 248.65 62.25 251.51 60.45C256.62 57.24 263.16 59.85 266.23 63.25C268.27 65.46 269.09 66.86 269.09 67.46C269.09 68.26 266.64 67.46 266.64 67.46C265.21 66.86 263.57 66.66 262.35 65.86C260.71 65.06 259.08 63.86 256.62 64.06C246.41 65.26 244.36 68.66 235.58 66.66C226.79 64.66 224.54 62.85 215.14 63.45" id="edhh6cAVW"></path><path d="M183.88 244.75C181.22 244.75 177.54 242.75 175.5 239.94C166.71 227.52 153.84 219.31 130.54 219.91C95.6 220.71 81.7 206.69 79.05 179.85C77.62 165.22 73.53 151 65.15 142.98C64.66 143.28 60.74 145.69 60.25 145.99C69.65 154 72.71 167.02 74.76 184.85C78.03 211.7 100.09 224.12 125.84 224.52C152.61 224.92 162.22 230.33 172.23 243.55C175.5 247.76 179.18 249.16 182.04 249.76C182.4 248.92 183.51 246.39 183.88 245.55C183.47 245.15 184.29 244.75 183.88 244.75Z" id="a3P7wSaGDF"></path><path d="M183.88 244.75C181.22 244.75 177.54 242.75 175.5 239.94C166.71 227.52 153.84 219.31 130.54 219.91C95.6 220.71 81.7 206.69 79.05 179.85C77.62 165.22 73.53 151 65.15 142.98C64.66 143.28 60.74 145.69 60.25 145.99C69.65 154 72.71 167.02 74.76 184.85C78.03 211.7 100.09 224.12 125.84 224.52C152.61 224.92 162.22 230.33 172.23 243.55C175.5 247.76 179.18 249.16 182.04 249.76C182.4 248.92 183.51 246.39 183.88 245.55C183.47 245.15 184.29 244.75 183.88 244.75Z" id="bdj7TtiaB"></path><path d="M284.21 128.36C285.64 129.76 285.84 130.16 284.62 130.16C283.39 130.16 274.4 129.76 274.4 129.76C274.24 129.48 273.42 128.08 271.95 125.56C275.55 120.85 277.79 117.92 278.69 116.74C279.31 119.75 280.94 125.56 284.21 128.36Z" id="h3bQafyUrw"></path><path d="M284.21 128.36C285.64 129.76 285.84 130.16 284.62 130.16C283.39 130.16 274.4 129.76 274.4 129.76C274.24 129.48 273.42 128.08 271.95 125.56C275.55 120.85 277.79 117.92 278.69 116.74C279.31 119.75 280.94 125.56 284.21 128.36Z" id="bH2MIDYq3"></path></defs><g><g><g><use xlink:href="#l7rgkKPdX" opacity="1" fill="#352f44" fill-opacity="1"></use><g><use xlink:href="#l7rgkKPdX" opacity="1" fill-opacity="0" stroke="#000000" stroke-width="1" stroke-opacity="1"></use></g></g><g><use xlink:href="#m14dOVcSmk" opacity="1" fill="#010101" fill-opacity="1"></use><g><use xlink:href="#m14dOVcSmk" opacity="1" fill-opacity="0" stroke="#000000" stroke-width="1" stroke-opacity="0"></use></g></g><g><use xlink:href="#bNcUkif2" opacity="1" fill="#000000" fill-opacity="0"></use><g><use xlink:href="#bNcUkif2" opacity="1" fill-opacity="0" stroke="#000000" stroke-width="1" stroke-opacity="0"></use></g></g><g><use xlink:href="#a17w5N850n" opacity="1" fill="#a0a29e" fill-opacity="1"></use><g><use xlink:href="#a17w5N850n" opacity="1" fill-opacity="0" stroke="#000000" stroke-width="1" stroke-opacity="0"></use></g></g><g><use xlink:href="#as8iUY5AD" opacity="1" fill="#000000" fill-opacity="0"></use><g><use xlink:href="#as8iUY5AD" opacity="1" fill-opacity="0" stroke="#000000" stroke-width="1" stroke-opacity="0"></use></g></g><g><use xlink:href="#a2lRjxUHP0" opacity="1" fill="#a0a29e" fill-opacity="1"></use><g><use xlink:href="#a2lRjxUHP0" opacity="1" fill-opacity="0" stroke="#000000" stroke-width="1" stroke-opacity="0"></use></g></g><g><use xlink:href="#awQ9Kzdd7" opacity="1" fill="#000000" fill-opacity="0"></use><g><use xlink:href="#awQ9Kzdd7" opacity="1" fill-opacity="0" stroke="#000000" stroke-width="1" stroke-opacity="0"></use></g></g><g><use xlink:href="#e9U4UqAbr" opacity="1" fill="#010101" fill-opacity="1"></use><g><use xlink:href="#e9U4UqAbr" opacity="1" fill-opacity="0" stroke="#000000" stroke-width="1" stroke-opacity="0"></use></g></g><g><use xlink:href="#aoPIsVLrq" opacity="1" fill="#000000" fill-opacity="0"></use><g><use xlink:href="#aoPIsVLrq" opacity="1" fill-opacity="0" stroke="#000000" stroke-width="1" stroke-opacity="0"></use></g></g><g><use xlink:href="#d2TUsRIvur" opacity="1" fill="#f0efef" fill-opacity="1"></use><g><use xlink:href="#d2TUsRIvur" opacity="1" fill-opacity="0" stroke="#000000" stroke-width="1" stroke-opacity="0"></use></g></g><g><use xlink:href="#a3Wdl9cfXj" opacity="1" fill="#000000" fill-opacity="0"></use><g><use xlink:href="#a3Wdl9cfXj" opacity="1" fill-opacity="0" stroke="#000000" stroke-width="1" stroke-opacity="0"></use></g></g><g><use xlink:href="#iaBmDucg" opacity="1" fill="#010101" fill-opacity="1"></use><g><use xlink:href="#iaBmDucg" opacity="1" fill-opacity="0" stroke="#000000" stroke-width="1" stroke-opacity="0"></use></g></g><g><use xlink:href="#gdqkGsUiM" opacity="1" fill="#000000" fill-opacity="0"></use><g><use xlink:href="#gdqkGsUiM" opacity="1" fill-opacity="0" stroke="#000000" stroke-width="1" stroke-opacity="0"></use></g></g><g><use xlink:href="#bkYJIp6sI" opacity="1" fill="#010101" fill-opacity="1"></use><g><use xlink:href="#bkYJIp6sI" opacity="1" fill-opacity="0" stroke="#000000" stroke-width="1" stroke-opacity="0"></use></g></g><g><use xlink:href="#d2V8IWi5y" opacity="1" fill="#000000" fill-opacity="0"></use><g><use xlink:href="#d2V8IWi5y" opacity="1" fill-opacity="0" stroke="#000000" stroke-width="1" stroke-opacity="0"></use></g></g><g><use xlink:href="#d1Ooap1kiE" opacity="1" fill="#010101" fill-opacity="1"></use><g><use xlink:href="#d1Ooap1kiE" opacity="1" fill-opacity="0" stroke="#000000" stroke-width="1" stroke-opacity="0"></use></g></g><g><use xlink:href="#cdABHO5Ee" opacity="1" fill="#000000" fill-opacity="0"></use><g><use xlink:href="#cdABHO5Ee" opacity="1" fill-opacity="0" stroke="#000000" stroke-width="1" stroke-opacity="0"></use></g></g><g><use xlink:href="#aw14NrErT" opacity="1" fill="#010101" fill-opacity="1"></use><g><use xlink:href="#aw14NrErT" opacity="1" fill-opacity="0" stroke="#000000" stroke-width="1" stroke-opacity="0"></use></g></g><g><use xlink:href="#cNNcpby4" opacity="1" fill="#000000" fill-opacity="0"></use><g><use xlink:href="#cNNcpby4" opacity="1" fill-opacity="0" stroke="#000000" stroke-width="1" stroke-opacity="0"></use></g></g><g><use xlink:href="#b8bLRZXJSd" opacity="1" fill="#f0efef" fill-opacity="1"></use><g><use xlink:href="#b8bLRZXJSd" opacity="1" fill-opacity="0" stroke="#000000" stroke-width="1" stroke-opacity="0"></use></g></g><g><use xlink:href="#k3DiN1YU3g" opacity="1" fill="#000000" fill-opacity="0"></use><g><use xlink:href="#k3DiN1YU3g" opacity="1" fill-opacity="0" stroke="#000000" stroke-width="1" stroke-opacity="0"></use></g></g><g><use xlink:href="#c3Gt3zDIWn" opacity="1" fill="#010101" fill-opacity="1"></use><g><use xlink:href="#c3Gt3zDIWn" opacity="1" fill-opacity="0" stroke="#000000" stroke-width="1" stroke-opacity="0"></use></g></g><g><use xlink:href="#a5Cdp09Hju" opacity="1" fill="#000000" fill-opacity="0"></use><g><use xlink:href="#a5Cdp09Hju" opacity="1" fill-opacity="0" stroke="#000000" stroke-width="1" stroke-opacity="0"></use></g></g><g><use xlink:href="#c3yt1H7h47" opacity="1" fill="#a0a29e" fill-opacity="1"></use><g><use xlink:href="#c3yt1H7h47" opacity="1" fill-opacity="0" stroke="#000000" stroke-width="1" stroke-opacity="0"></use></g></g><g><use xlink:href="#a1fJUADG" opacity="1" fill="#000000" fill-opacity="0"></use><g><use xlink:href="#a1fJUADG" opacity="1" fill-opacity="0" stroke="#000000" stroke-width="1" stroke-opacity="0"></use></g></g><g><use xlink:href="#a2DZR7lOAe" opacity="1" fill="#010101" fill-opacity="1"></use><g><use xlink:href="#a2DZR7lOAe" opacity="1" fill-opacity="0" stroke="#000000" stroke-width="1" stroke-opacity="0"></use></g></g><g><use xlink:href="#awk06Cxjz" opacity="1" fill="#000000" fill-opacity="0"></use><g><use xlink:href="#awk06Cxjz" opacity="1" fill-opacity="0" stroke="#000000" stroke-width="1" stroke-opacity="0"></use></g></g><g><use xlink:href="#a43JfxlHmE" opacity="1" fill="#a0a29e" fill-opacity="1"></use><g><use xlink:href="#a43JfxlHmE" opacity="1" fill-opacity="0" stroke="#000000" stroke-width="1" stroke-opacity="0"></use></g></g><g><use xlink:href="#ccK4Sgwch" opacity="1" fill="#000000" fill-opacity="0"></use><g><use xlink:href="#ccK4Sgwch" opacity="1" fill-opacity="0" stroke="#000000" stroke-width="1" stroke-opacity="0"></use></g></g><g><use xlink:href="#e2iyQz33cU" opacity="1" fill="#010101" fill-opacity="1"></use><g><use xlink:href="#e2iyQz33cU" opacity="1" fill-opacity="0" stroke="#000000" stroke-width="1" stroke-opacity="0"></use></g></g><g><use xlink:href="#b6wUzrAu3m" opacity="1" fill="#000000" fill-opacity="0"></use><g><use xlink:href="#b6wUzrAu3m" opacity="1" fill-opacity="0" stroke="#000000" stroke-width="1" stroke-opacity="0"></use></g></g><g><use xlink:href="#g1AxC7Bmw9" opacity="1" fill="#f0efef" fill-opacity="1"></use><g><use xlink:href="#g1AxC7Bmw9" opacity="1" fill-opacity="0" stroke="#000000" stroke-width="1" stroke-opacity="0"></use></g></g><g><use xlink:href="#hmaIcqP7l" opacity="1" fill="#000000" fill-opacity="0"></use><g><use xlink:href="#hmaIcqP7l" opacity="1" fill-opacity="0" stroke="#000000" stroke-width="1" stroke-opacity="0"></use></g></g><g><use xlink:href="#a7y07miRRv" opacity="1" fill="#010101" fill-opacity="1"></use><g><use xlink:href="#a7y07miRRv" opacity="1" fill-opacity="0" stroke="#000000" stroke-width="1" stroke-opacity="0"></use></g></g><g><use xlink:href="#b18TXMmEcE" opacity="1" fill="#000000" fill-opacity="0"></use><g><use xlink:href="#b18TXMmEcE" opacity="1" fill-opacity="0" stroke="#000000" stroke-width="1" stroke-opacity="0"></use></g></g><g><use xlink:href="#brwg2Vzl" opacity="1" fill="#f0efef" fill-opacity="1"></use><g><use xlink:href="#brwg2Vzl" opacity="1" fill-opacity="0" stroke="#000000" stroke-width="1" stroke-opacity="0"></use></g></g><g><use xlink:href="#i1aP0ujguk" opacity="1" fill="#000000" fill-opacity="0"></use><g><use xlink:href="#i1aP0ujguk" opacity="1" fill-opacity="0" stroke="#000000" stroke-width="1" stroke-opacity="0"></use></g></g><g><use xlink:href="#a7oQNXRe1P" opacity="1" fill="#010101" fill-opacity="1"></use><g><use xlink:href="#a7oQNXRe1P" opacity="1" fill-opacity="0" stroke="#000000" stroke-width="1" stroke-opacity="0"></use></g></g><g><use xlink:href="#cH3yJ8zs3" opacity="1" fill="#000000" fill-opacity="0"></use><g><use xlink:href="#cH3yJ8zs3" opacity="1" fill-opacity="0" stroke="#000000" stroke-width="1" stroke-opacity="0"></use></g></g><g><use xlink:href="#a2vUde7Caa" opacity="1" fill="#f0efef" fill-opacity="1"></use><g><use xlink:href="#a2vUde7Caa" opacity="1" fill-opacity="0" stroke="#000000" stroke-width="1" stroke-opacity="0"></use></g></g><g><use xlink:href="#aoIjCJjqS" opacity="1" fill="#000000" fill-opacity="0"></use><g><use xlink:href="#aoIjCJjqS" opacity="1" fill-opacity="0" stroke="#000000" stroke-width="1" stroke-opacity="0"></use></g></g><g><use xlink:href="#nuLjaDOap" opacity="1" fill="#010101" fill-opacity="1"></use><g><use xlink:href="#nuLjaDOap" opacity="1" fill-opacity="0" stroke="#000000" stroke-width="1" stroke-opacity="0"></use></g></g><g><use xlink:href="#c9ihVs93B" opacity="1" fill="#000000" fill-opacity="0"></use><g><use xlink:href="#c9ihVs93B" opacity="1" fill-opacity="0" stroke="#000000" stroke-width="1" stroke-opacity="0"></use></g></g><g><use xlink:href="#d2bMwHbaa2" opacity="1" fill="#010101" fill-opacity="1"></use><g><use xlink:href="#d2bMwHbaa2" opacity="1" fill-opacity="0" stroke="#000000" stroke-width="1" stroke-opacity="0"></use></g></g><g><use xlink:href="#dBW6fo1r2" opacity="1" fill="#000000" fill-opacity="0"></use><g><use xlink:href="#dBW6fo1r2" opacity="1" fill-opacity="0" stroke="#000000" stroke-width="1" stroke-opacity="0"></use></g></g><g><use xlink:href="#a3l999pJUR" opacity="1" fill="#f0efef" fill-opacity="1"></use><g><use xlink:href="#a3l999pJUR" opacity="1" fill-opacity="0" stroke="#000000" stroke-width="1" stroke-opacity="0"></use></g></g><g><use xlink:href="#dORjqjsf2" opacity="1" fill="#000000" fill-opacity="0"></use><g><use xlink:href="#dORjqjsf2" opacity="1" fill-opacity="0" stroke="#000000" stroke-width="1" stroke-opacity="0"></use></g></g><g><use xlink:href="#a1kXGXemQ9" opacity="1" fill="#010101" fill-opacity="1"></use><g><use xlink:href="#a1kXGXemQ9" opacity="1" fill-opacity="0" stroke="#000000" stroke-width="1" stroke-opacity="0"></use></g></g><g><use xlink:href="#d3NNVwiUDF" opacity="1" fill="#000000" fill-opacity="0"></use><g><use xlink:href="#d3NNVwiUDF" opacity="1" fill-opacity="0" stroke="#000000" stroke-width="1" stroke-opacity="0"></use></g></g><g><use xlink:href="#c4AY9H86Ic" opacity="1" fill="#0a1825" fill-opacity="1"></use><g><use xlink:href="#c4AY9H86Ic" opacity="1" fill-opacity="0" stroke="#000000" stroke-width="1" stroke-opacity="0"></use></g></g><g><use xlink:href="#aanuN6ANDQ" opacity="1" fill="#000000" fill-opacity="0"></use><g><use xlink:href="#aanuN6ANDQ" opacity="1" fill-opacity="0" stroke="#000000" stroke-width="1" stroke-opacity="0"></use></g></g><g><use xlink:href="#bwTh0BucX" opacity="1" fill="#f0efef" fill-opacity="1"></use><g><use xlink:href="#bwTh0BucX" opacity="1" fill-opacity="0" stroke="#000000" stroke-width="1" stroke-opacity="0"></use></g></g><g><use xlink:href="#g129ta9qFa" opacity="1" fill="#000000" fill-opacity="0"></use><g><use xlink:href="#g129ta9qFa" opacity="1" fill-opacity="0" stroke="#000000" stroke-width="1" stroke-opacity="0"></use></g></g><g><use xlink:href="#e35k0HIUk" opacity="1" fill="#010101" fill-opacity="1"></use><g><use xlink:href="#e35k0HIUk" opacity="1" fill-opacity="0" stroke="#000000" stroke-width="1" stroke-opacity="0"></use></g></g><g><use xlink:href="#a1evqSMTwU" opacity="1" fill="#000000" fill-opacity="0"></use><g><use xlink:href="#a1evqSMTwU" opacity="1" fill-opacity="0" stroke="#000000" stroke-width="1" stroke-opacity="0"></use></g></g><g><use xlink:href="#b3n8JVmv62" opacity="1" fill="#a0a29e" fill-opacity="1"></use><g><use xlink:href="#b3n8JVmv62" opacity="1" fill-opacity="0" stroke="#000000" stroke-width="1" stroke-opacity="0"></use></g></g><g><use xlink:href="#a8TGIdIONF" opacity="1" fill="#000000" fill-opacity="0"></use><g><use xlink:href="#a8TGIdIONF" opacity="1" fill-opacity="0" stroke="#000000" stroke-width="1" stroke-opacity="0"></use></g></g><g><use xlink:href="#b2ghO7Plji" opacity="1" fill="#010101" fill-opacity="1"></use><g><use xlink:href="#b2ghO7Plji" opacity="1" fill-opacity="0" stroke="#000000" stroke-width="1" stroke-opacity="0"></use></g></g><g><use xlink:href="#b5yczZVn9p" opacity="1" fill="#000000" fill-opacity="0"></use><g><use xlink:href="#b5yczZVn9p" opacity="1" fill-opacity="0" stroke="#000000" stroke-width="1" stroke-opacity="0"></use></g></g><g><use xlink:href="#h3NhYB473" opacity="1" fill="#010101" fill-opacity="1"></use><g><use xlink:href="#h3NhYB473" opacity="1" fill-opacity="0" stroke="#000000" stroke-width="1" stroke-opacity="0"></use></g></g><g><use xlink:href="#dDCrCrAJg" opacity="1" fill="#000000" fill-opacity="0"></use><g><use xlink:href="#dDCrCrAJg" opacity="1" fill-opacity="0" stroke="#000000" stroke-width="1" stroke-opacity="0"></use></g></g><g><use xlink:href="#f3SCZ5ETN" opacity="1" fill="#f0efef" fill-opacity="1"></use><g><use xlink:href="#f3SCZ5ETN" opacity="1" fill-opacity="0" stroke="#000000" stroke-width="1" stroke-opacity="0"></use></g></g><g><use xlink:href="#j1mP4vCKxB" opacity="1" fill="#000000" fill-opacity="0"></use><g><use xlink:href="#j1mP4vCKxB" opacity="1" fill-opacity="0" stroke="#000000" stroke-width="1" stroke-opacity="0"></use></g></g><g><use xlink:href="#b56YZMyBVs" opacity="1" fill="#010101" fill-opacity="1"></use><g><use xlink:href="#b56YZMyBVs" opacity="1" fill-opacity="0" stroke="#000000" stroke-width="1" stroke-opacity="0"></use></g></g><g><use xlink:href="#a2ACJT5j2P" opacity="1" fill="#000000" fill-opacity="0"></use><g><use xlink:href="#a2ACJT5j2P" opacity="1" fill-opacity="0" stroke="#000000" stroke-width="1" stroke-opacity="0"></use></g></g><g><use xlink:href="#f167DmkTmQ" opacity="1" fill="#f0efef" fill-opacity="1"></use><g><use xlink:href="#f167DmkTmQ" opacity="1" fill-opacity="0" stroke="#000000" stroke-width="1" stroke-opacity="0"></use></g></g><g><use xlink:href="#a1X0ScWWuK" opacity="1" fill="#000000" fill-opacity="0"></use><g><use xlink:href="#a1X0ScWWuK" opacity="1" fill-opacity="0" stroke="#000000" stroke-width="1" stroke-opacity="0"></use></g></g><g><use xlink:href="#b4VFGVV5q5" opacity="1" fill="#010101" fill-opacity="1"></use><g><use xlink:href="#b4VFGVV5q5" opacity="1" fill-opacity="0" stroke="#000000" stroke-width="1" stroke-opacity="0"></use></g></g><g><use xlink:href="#ecH8lR9lX" opacity="1" fill="#000000" fill-opacity="0"></use><g><use xlink:href="#ecH8lR9lX" opacity="1" fill-opacity="0" stroke="#000000" stroke-width="1" stroke-opacity="0"></use></g></g><g><use xlink:href="#buHTdvsc7" opacity="1" fill="#010101" fill-opacity="1"></use><g><use xlink:href="#buHTdvsc7" opacity="1" fill-opacity="0" stroke="#000000" stroke-width="1" stroke-opacity="0"></use></g></g><g><use xlink:href="#a3aw10JrNm" opacity="1" fill="#000000" fill-opacity="0"></use><g><use xlink:href="#a3aw10JrNm" opacity="1" fill-opacity="0" stroke="#000000" stroke-width="1" stroke-opacity="0"></use></g></g><g><use xlink:href="#a8GHdBsfH" opacity="1" fill="#010101" fill-opacity="1"></use><g><use xlink:href="#a8GHdBsfH" opacity="1" fill-opacity="0" stroke="#000000" stroke-width="1" stroke-opacity="0"></use></g></g><g><use xlink:href="#adMt7QRFD" opacity="1" fill="#000000" fill-opacity="0"></use><g><use xlink:href="#adMt7QRFD" opacity="1" fill-opacity="0" stroke="#000000" stroke-width="1" stroke-opacity="0"></use></g></g><g><use xlink:href="#bEcNxOPRU" opacity="1" fill="#8ac640" fill-opacity="1"></use><g><use xlink:href="#bEcNxOPRU" opacity="1" fill-opacity="0" stroke="#000000" stroke-width="1" stroke-opacity="0"></use></g></g><g><use xlink:href="#h28oz6XfWu" opacity="1" fill="#000000" fill-opacity="0"></use><g><use xlink:href="#h28oz6XfWu" opacity="1" fill-opacity="0" stroke="#010101" stroke-width="1.59" stroke-opacity="1"></use></g></g><g><use xlink:href="#a1OUPj2CKB" opacity="1" fill="#a0a29e" fill-opacity="1"></use><g><use xlink:href="#a1OUPj2CKB" opacity="1" fill-opacity="0" stroke="#000000" stroke-width="1" stroke-opacity="0"></use></g></g><g><use xlink:href="#edhh6cAVW" opacity="1" fill="#000000" fill-opacity="0"></use><g><use xlink:href="#edhh6cAVW" opacity="1" fill-opacity="0" stroke="#000000" stroke-width="1" stroke-opacity="0"></use></g></g><g><use xlink:href="#a3P7wSaGDF" opacity="1" fill="#010101" fill-opacity="1"></use><g><use xlink:href="#a3P7wSaGDF" opacity="1" fill-opacity="0" stroke="#000000" stroke-width="1" stroke-opacity="0"></use></g></g><g><use xlink:href="#bdj7TtiaB" opacity="1" fill="#000000" fill-opacity="0"></use><g><use xlink:href="#bdj7TtiaB" opacity="1" fill-opacity="0" stroke="#000000" stroke-width="1" stroke-opacity="0"></use></g></g><g><use xlink:href="#h3bQafyUrw" opacity="1" fill="#010101" fill-opacity="1"></use><g><use xlink:href="#h3bQafyUrw" opacity="1" fill-opacity="0" stroke="#000000" stroke-width="1" stroke-opacity="0"></use></g></g><g><use xlink:href="#bH2MIDYq3" opacity="1" fill="#000000" fill-opacity="0"></use><g><use xlink:href="#bH2MIDYq3" opacity="1" fill-opacity="0" stroke="#000000" stroke-width="1" stroke-opacity="0"></use></g></g></g></g></svg>