<?xml version="1.0" encoding="UTF-8" standalone="no"?>
<!DOCTYPE svg PUBLIC "-//W3C//DTD SVG 1.1//EN" "http://www.w3.org/Graphics/SVG/1.1/DTD/svg11.dtd">
<svg version="1.1" xmlns="http://www.w3.org/2000/svg" xmlns:xlink="http://www.w3.org/1999/xlink" preserveAspectRatio="xMidYMid meet" viewBox="0 0 378.13 437.77" width="378.13" height="437.77"><defs><path d="M0 0L378.13 0L378.13 437.77L0 437.77L0 0Z" id="d1ltaqvRtT"></path><path d="M172.5 319.47L276.55 292.49L301.03 35.95L172.5 35.95L172.5 319.47Z" id="aefU9CuAy"></path><path d="M340.02 391.87L189.53 434.71L39.47 391.93L6.02 6.79L373.49 6.79L340.02 391.87Z" id="aNWXT8Ig3"></path><mask id="maskeaoe23tnC" x="4.02" y="4.79" width="371.47" height="431.92" maskUnits="userSpaceOnUse"><rect x="4.02" y="4.79" width="371.47" height="431.92" fill="white"></rect><use xlink:href="#aNWXT8Ig3" opacity="1" fill="black"></use></mask><path d="M190.77 175.72L138.68 175.72L135.09 138.01L190.77 138.01L190.77 101.19L92.07 101.19L93.01 111.07L102.68 212.55L190.77 212.55L190.77 175.72ZM190.77 271.36L190.6 271.4L146.76 260.33L143.96 230.96L104.44 230.96L109.96 288.78L190.59 309.72L190.77 309.67L190.77 271.36Z" id="a4zCJPz8bn"></path><path d="M189.07 175.74L189.07 212.57L237.54 212.57L232.97 260.32L189.07 271.41L189.07 309.72L269.76 288.8L270.36 282.58L279.61 185.63L280.57 175.74L269.96 175.74L189.07 175.74ZM189.07 101.21L189.07 138.03L284.15 138.03L284.94 129.75L286.73 111.09L287.67 101.21L189.07 101.21Z" id="cv80x8PaL"></path></defs><g><g><g><use xlink:href="#d1ltaqvRtT" opacity="1" fill="#352f44" fill-opacity="1"></use></g><g><use xlink:href="#aefU9CuAy" opacity="1" fill="#352f44" fill-opacity="1"></use><g><use xlink:href="#aefU9CuAy" opacity="1" fill-opacity="0" stroke="#000000" stroke-width="1" stroke-opacity="0"></use></g></g><g><use xlink:href="#aNWXT8Ig3" opacity="1" fill="#352f44" fill-opacity="1"></use><g mask="url(#maskeaoe23tnC)"><use xlink:href="#aNWXT8Ig3" opacity="1" fill-opacity="0" stroke="#000000" stroke-width="2" stroke-opacity="1"></use></g></g><g><use xlink:href="#a4zCJPz8bn" opacity="1" fill="#ebebeb" fill-opacity="1"></use><g><use xlink:href="#a4zCJPz8bn" opacity="1" fill-opacity="0" stroke="#000000" stroke-width="1" stroke-opacity="0"></use></g></g><g><use xlink:href="#cv80x8PaL" opacity="1" fill="#ffffff" fill-opacity="1"></use><g><use xlink:href="#cv80x8PaL" opacity="1" fill-opacity="0" stroke="#000000" stroke-width="1" stroke-opacity="0"></use></g></g></g></g></svg>