<?xml version="1.0" encoding="UTF-8" standalone="no"?>
<!DOCTYPE svg PUBLIC "-//W3C//DTD SVG 1.1//EN" "http://www.w3.org/Graphics/SVG/1.1/DTD/svg11.dtd">
<svg version="1.1" xmlns="http://www.w3.org/2000/svg" xmlns:xlink="http://www.w3.org/1999/xlink" preserveAspectRatio="xMidYMid meet" viewBox="0 0 350 350" width="350" height="350"><defs><path d="M192.86 195.1L136.38 195.1L132.48 154.37L192.86 154.37L192.86 114.6L85.83 114.6L86.85 125.27L97.35 234.87L192.86 234.87L192.86 195.1ZM192.86 298.39L192.68 298.43L145.14 286.47L142.1 254.75L99.25 254.75L105.23 317.2L192.67 339.82L192.86 339.77L192.86 298.39Z" id="a293KSDKM9"></path><path d="M191.73 195.1L191.73 234.87L244.29 234.87L239.34 286.45L191.73 298.42L191.73 339.8L279.24 317.2L279.88 310.48L289.91 205.78L290.95 195.1L279.45 195.1L191.73 195.1ZM191.73 114.6L191.73 154.37L294.83 154.37L295.69 145.43L297.63 125.27L298.66 114.6L191.73 114.6Z" id="c3AjsulFe2"></path><path d="M0.83 0.83L350 1.25L349.58 350L0.41 349.58L0.83 0.83Z" id="j9Es3VVx3"></path><path d="M277.04 224.16C266.3 219.21 254.32 215.66 250.76 207.51C249.5 202.77 249.33 200.1 250.14 197.23C252.45 187.92 263.57 185.03 272.38 187.71C278.05 189.62 283.42 194 286.65 200.98C301.81 191.18 301.78 191.25 312.36 184.52C308.5 178.51 306.43 175.74 303.9 173.16C294.8 162.97 282.39 157.72 262.53 158.1C259.1 158.53 255.63 158.99 252.19 159.42C242.27 161.91 232.82 167.1 227.27 174.07C210.63 192.91 215.33 225.92 235.54 239.53C255.44 254.5 284.71 257.94 288.43 271.93C292.05 289.06 275.82 294.58 259.7 292.59C247.82 290.1 241.22 284.06 234.09 273.07C220.94 280.66 220.94 280.66 207.41 288.42C210.61 295.43 213.97 298.61 219.34 304.69C244.74 330.52 308.38 329.33 319.84 290.29C320.31 288.96 323.39 280.02 320.94 266.23C318.39 250.21 307.96 236.75 277.04 224.16ZM156.74 160.04C156.7 188.4 156.54 216.57 156.5 244.94C156.48 262.99 157.39 279.55 154.45 284.62C149.63 294.59 137.19 293.34 131.52 291.4C125.75 288.55 122.81 284.51 119.42 278.8C118.48 277.17 117.78 275.9 117.55 275.8C108.63 281.22 99.75 286.69 90.83 292.12C95.26 301.23 101.79 309.15 110.16 314.3C122.67 321.82 139.48 324.15 157.08 320.13C168.53 316.81 178.42 309.91 183.6 299.4C191.09 285.63 189.51 268.94 189.47 250.49C189.67 220.38 189.54 190.28 189.58 160.08C183.01 160.07 160.02 160.04 156.74 160.04Z" id="ha0jmDmn5"></path></defs><g><g><g><use xlink:href="#a293KSDKM9" opacity="1" fill="#ebebeb" fill-opacity="1"></use><g><use xlink:href="#a293KSDKM9" opacity="1" fill-opacity="0" stroke="#000000" stroke-width="1" stroke-opacity="0"></use></g></g><g><use xlink:href="#c3AjsulFe2" opacity="1" fill="#ffffff" fill-opacity="1"></use><g><use xlink:href="#c3AjsulFe2" opacity="1" fill-opacity="0" stroke="#000000" stroke-width="1" stroke-opacity="0"></use></g></g><g><use xlink:href="#j9Es3VVx3" opacity="1" fill="#352f44" fill-opacity="1"></use><g><use xlink:href="#j9Es3VVx3" opacity="1" fill-opacity="0" stroke="#000000" stroke-width="1" stroke-opacity="1"></use></g></g><g><use xlink:href="#ha0jmDmn5" opacity="1" fill="#0b0b0b" fill-opacity="1"></use><g><use xlink:href="#ha0jmDmn5" opacity="1" fill-opacity="0" stroke="#000000" stroke-width="1" stroke-opacity="0"></use></g></g></g></g></svg>